<svg xmlns="http://www.w3.org/2000/svg" viewBox="0 0 3216.31 2000"><defs><style>.cls-1{fill:#f3f6f9;}.cls-2{fill:#184655;}.cls-3{fill:#3c8f7c;}.cls-4{fill:#f47458;}.cls-5{fill:#b75742;}.cls-6{fill:#f48c7f;}.cls-7{fill:#100062;}.cls-8{fill:#f6a390;}.cls-9{fill:#ff3b3b;}.cls-10{fill:#fae0b2;}.cls-11{fill:#f7a491;}.cls-12{fill:#355389;}.cls-13{fill:#f7cc7f;}.cls-14{fill:#50bfa5;}.cls-15{fill:#ba2222;}.cls-16{fill:#13375b;}.cls-17{fill:#86b1f2;}.cls-18{fill:#466eb6;}.cls-19{fill:#9bc1f9;}</style></defs><g id="katman_2" data-name="katman 2"><g id="katman_3" data-name="katman 3"><rect class="cls-1" width="3216.31" height="2000"/><path class="cls-2" d="M2780.54,1773.79H1131.61V348.9a114.22,114.22,0,0,1,114.1-114.1H2684.78a95.87,95.87,0,0,1,95.76,95.77Zm-1623-25.94H2754.61V330.57a69.91,69.91,0,0,0-69.83-69.83H1245.71a88.25,88.25,0,0,0-88.16,88.16Z"/><rect class="cls-2" x="1144.58" y="533.55" width="1623" height="28.84"/><rect class="cls-2" x="1144.58" y="765.8" width="1623" height="28.84"/><rect class="cls-2" x="1144.58" y="998.05" width="1623" height="28.84"/><rect class="cls-2" x="1144.58" y="1231.14" width="1623" height="28.84"/><rect class="cls-3" x="1498.59" y="1080.32" width="40.53" height="150.82" transform="translate(3037.71 2311.46) rotate(180)"/><rect class="cls-3" x="1454.01" y="1067.22" width="35.12" height="163.93" transform="translate(2943.14 2298.36) rotate(180)"/><rect class="cls-3" x="1409.07" y="1067.22" width="35.12" height="163.93" transform="translate(2703.15 2463.1) rotate(-173.03)"/><rect class="cls-3" x="2631.02" y="1080.32" width="40.53" height="150.82" transform="translate(5302.57 2311.46) rotate(180)"/><rect class="cls-3" x="2586.44" y="1067.22" width="35.12" height="163.93" transform="translate(5208 2298.36) rotate(180)"/><rect class="cls-3" x="2541.5" y="1067.22" width="35.12" height="163.93" transform="translate(4959.62 2600.61) rotate(-173.03)"/><rect class="cls-3" x="1201.68" y="1201.65" width="165.72" height="29.5" transform="translate(2569.08 2432.79) rotate(180)"/><rect class="cls-3" x="1181.42" y="1181.36" width="165.72" height="20.28" transform="translate(2528.56 2383.01) rotate(180)"/><rect class="cls-3" x="1197.71" y="1161.08" width="158.88" height="20.28" transform="translate(2554.31 2342.45) rotate(180)"/><rect class="cls-3" x="1193.87" y="1145.59" width="143.49" height="15.49" transform="translate(2531.22 2306.67) rotate(180)"/><rect class="cls-3" x="1997.13" y="1201.65" width="165.72" height="29.5" transform="translate(4159.97 2432.79) rotate(180)"/><rect class="cls-3" x="1976.86" y="1181.36" width="165.72" height="20.28" transform="translate(4119.44 2383.01) rotate(180)"/><rect class="cls-3" x="1993.16" y="1161.08" width="158.88" height="20.28" transform="translate(4145.2 2342.45) rotate(180)"/><rect class="cls-3" x="1989.31" y="1145.59" width="143.49" height="15.49" transform="translate(4122.11 2306.67) rotate(180)"/><rect class="cls-3" x="1971.4" y="1125.31" width="165.72" height="20.28" transform="translate(4108.53 2270.9) rotate(180)"/><rect class="cls-3" x="1987.7" y="1105.02" width="158.88" height="20.28" transform="translate(4134.28 2230.33) rotate(180)"/><rect class="cls-3" x="1983.85" y="1089.53" width="143.49" height="15.49" transform="translate(4111.19 2194.56) rotate(180)"/><rect class="cls-3" x="1872.9" y="1067.22" width="28.25" height="163.28" transform="translate(3774.05 2297.71) rotate(180)"/><rect class="cls-3" x="2220.28" y="1059.74" width="28.25" height="170.76" transform="translate(4468.81 2290.23) rotate(180)"/><rect class="cls-3" x="2305.86" y="1067.22" width="28.25" height="163.28" transform="translate(4639.97 2297.71) rotate(180)"/><rect class="cls-3" x="1837.2" y="1053.76" width="35.7" height="176.74" transform="translate(3710.09 2284.25) rotate(180)"/><rect class="cls-3" x="2339.99" y="1053.76" width="35.7" height="176.74" transform="translate(4715.69 2284.25) rotate(180)"/><rect class="cls-3" x="1801.49" y="1062.18" width="35.7" height="168.31" transform="translate(3638.69 2292.67) rotate(180)"/><rect class="cls-3" x="2151.32" y="1037.84" width="35.7" height="191" transform="translate(4500.93 1876.78) rotate(170.1)"/><rect class="cls-3" x="1765.79" y="1087.99" width="35.7" height="142.5" transform="translate(3567.29 2318.48) rotate(180)"/><rect class="cls-3" x="2386.71" y="1087.99" width="35.7" height="142.5" transform="translate(4809.12 2318.48) rotate(180)"/><rect class="cls-3" x="1730.09" y="1080.32" width="35.7" height="150.17" transform="translate(3495.88 2310.81) rotate(180)"/><rect class="cls-3" x="1688.68" y="1080.32" width="35.7" height="150.17" transform="translate(3413.06 2310.81) rotate(180)"/><rect class="cls-3" x="2427.37" y="1080.32" width="35.7" height="150.17" transform="translate(4890.45 2310.81) rotate(180)"/><rect class="cls-3" x="1646.3" y="1067.22" width="35.7" height="163.28" transform="translate(3328.31 2297.71) rotate(180)"/><rect class="cls-3" x="2266.53" y="1067.22" width="35.7" height="163.28" transform="translate(4568.76 2297.71) rotate(180)"/><rect class="cls-3" x="2313.85" y="383.38" width="40.53" height="150.82"/><rect class="cls-3" x="2363.83" y="370.27" width="35.12" height="163.93"/><rect class="cls-3" x="2408.78" y="370.27" width="35.12" height="163.93" transform="translate(-36.96 297.98) rotate(-6.97)"/><rect class="cls-3" x="1661.63" y="614.99" width="40.53" height="150.82"/><rect class="cls-3" x="1711.62" y="601.89" width="35.12" height="163.93"/><rect class="cls-3" x="1756.56" y="601.89" width="35.12" height="163.93" transform="translate(-69.92 220.53) rotate(-6.98)"/><rect class="cls-3" x="1181.42" y="383.38" width="40.53" height="150.82"/><rect class="cls-3" x="1231.4" y="370.27" width="35.12" height="163.93"/><rect class="cls-3" x="1276.35" y="370.27" width="35.12" height="163.93" transform="translate(-45.34 160.47) rotate(-6.97)"/><rect class="cls-3" x="2485.56" y="504.7" width="165.72" height="29.5"/><rect class="cls-3" x="2505.83" y="484.42" width="165.72" height="20.28"/><rect class="cls-3" x="2496.37" y="464.14" width="158.88" height="20.28"/><rect class="cls-3" x="2515.61" y="448.65" width="143.49" height="15.49"/><rect class="cls-3" x="1690.12" y="504.7" width="165.72" height="29.5"/><rect class="cls-3" x="1710.38" y="484.42" width="165.72" height="20.28"/><rect class="cls-3" x="1700.93" y="464.14" width="158.88" height="20.28"/><rect class="cls-3" x="1720.17" y="448.65" width="143.49" height="15.49"/><rect class="cls-3" x="1715.84" y="428.36" width="165.72" height="20.28"/><rect class="cls-3" x="1706.38" y="408.08" width="158.88" height="20.28"/><rect class="cls-3" x="1725.62" y="392.59" width="143.49" height="15.49"/><rect class="cls-3" x="1951.82" y="370.27" width="28.25" height="163.28"/><rect class="cls-3" x="1604.43" y="362.79" width="28.25" height="170.76"/><rect class="cls-3" x="1518.86" y="370.27" width="28.25" height="163.28"/><rect class="cls-3" x="1980.07" y="356.81" width="35.7" height="176.74"/><rect class="cls-3" x="1477.27" y="356.81" width="35.7" height="176.74"/><rect class="cls-3" x="2015.77" y="365.23" width="35.7" height="168.32"/><rect class="cls-3" x="1665.94" y="340.9" width="35.7" height="191" transform="translate(100.13 -283.05) rotate(9.9)"/><rect class="cls-3" x="2208.82" y="736.3" width="165.72" height="29.5"/><rect class="cls-3" x="2229.09" y="716.02" width="165.72" height="20.28"/><rect class="cls-3" x="2219.63" y="695.74" width="158.88" height="20.28"/><rect class="cls-3" x="2238.87" y="680.25" width="143.49" height="15.49"/><rect class="cls-3" x="2234.55" y="659.96" width="165.72" height="20.28"/><rect class="cls-3" x="2225.09" y="639.68" width="158.88" height="20.28"/><rect class="cls-3" x="2244.33" y="624.19" width="143.49" height="15.49"/><rect class="cls-3" x="2184.65" y="572.5" width="35.7" height="191" transform="translate(147.68 -368.8) rotate(9.9)"/><rect class="cls-3" x="2051.47" y="391.04" width="35.7" height="142.5"/><rect class="cls-3" x="1430.56" y="391.04" width="35.7" height="142.5"/><rect class="cls-3" x="2087.17" y="383.38" width="35.7" height="150.17"/><rect class="cls-3" x="2128.58" y="383.38" width="35.7" height="150.17"/><rect class="cls-3" x="1389.89" y="383.38" width="35.7" height="150.17"/><rect class="cls-3" x="2075.87" y="589.06" width="35.7" height="176.74"/><rect class="cls-3" x="2029.16" y="623.29" width="35.7" height="142.5"/><rect class="cls-3" x="1988.49" y="615.63" width="35.7" height="150.17"/><rect class="cls-3" x="1869.17" y="615.63" width="35.7" height="150.17"/><rect class="cls-3" x="1819.35" y="615.63" width="35.7" height="150.17"/><rect class="cls-3" x="1257.24" y="589.06" width="35.7" height="176.74"/><rect class="cls-3" x="1303.61" y="589.06" width="35.7" height="176.74" transform="translate(-72.5 165.53) rotate(-6.98)"/><rect class="cls-3" x="1210.53" y="623.29" width="35.7" height="142.5"/><rect class="cls-3" x="1169.86" y="615.63" width="35.7" height="150.17"/><rect class="cls-3" x="2170.96" y="370.27" width="35.7" height="163.28"/><rect class="cls-3" x="1790.41" y="834.77" width="28.25" height="163.28"/><rect class="cls-3" x="1818.66" y="821.31" width="35.7" height="176.74"/><rect class="cls-3" x="1854.37" y="829.73" width="35.7" height="168.32"/><rect class="cls-3" x="1890.07" y="855.54" width="35.7" height="142.5"/><rect class="cls-3" x="1925.77" y="847.87" width="35.7" height="150.17"/><rect class="cls-3" x="1967.18" y="847.87" width="35.7" height="150.17"/><rect class="cls-3" x="2009.56" y="834.77" width="35.7" height="163.28"/><rect class="cls-3" x="2436.87" y="602.52" width="35.7" height="163.28"/><rect class="cls-3" x="2475.75" y="602.52" width="35.7" height="163.28"/><rect class="cls-3" x="1550.74" y="370.27" width="35.7" height="163.28"/><rect class="cls-3" x="2391.81" y="969.27" width="165.72" height="29.5"/><rect class="cls-3" x="2412.08" y="948.99" width="165.72" height="20.28"/><rect class="cls-3" x="2402.62" y="928.71" width="158.88" height="20.28"/><rect class="cls-3" x="2421.86" y="913.22" width="143.49" height="15.49"/><rect class="cls-3" x="2417.53" y="892.93" width="165.72" height="20.28"/><rect class="cls-3" x="2408.08" y="872.65" width="158.88" height="20.28"/><rect class="cls-3" x="2427.32" y="857.16" width="143.49" height="15.49"/><rect class="cls-3" x="2306.13" y="827.36" width="28.25" height="170.76"/><rect class="cls-3" x="2220.55" y="834.84" width="28.25" height="163.28"/><rect class="cls-3" x="2178.96" y="821.38" width="35.7" height="176.74"/><rect class="cls-3" x="2367.63" y="805.47" width="35.7" height="191" transform="translate(190.47 -396.79) rotate(9.9)"/><rect class="cls-3" x="2132.25" y="855.62" width="35.7" height="142.5"/><rect class="cls-3" x="2091.58" y="847.95" width="35.7" height="150.17"/><rect class="cls-3" x="1715.96" y="821.38" width="35.7" height="176.74"/><rect class="cls-3" x="1669.24" y="855.62" width="35.7" height="142.5"/><rect class="cls-3" x="1628.58" y="847.95" width="35.7" height="150.17"/><rect class="cls-3" x="1572.94" y="821.38" width="35.7" height="176.74"/><rect class="cls-3" x="1526.23" y="855.62" width="35.7" height="142.5"/><rect class="cls-3" x="1485.57" y="847.95" width="35.7" height="150.17"/><rect class="cls-3" x="2252.43" y="834.84" width="35.7" height="163.28"/></g><g id="katman_2-2" data-name="katman 2"><polygon class="cls-3" points="1035.85 1763.44 1000.98 1763.44 991.56 1671.32 1045.27 1671.32 1035.85 1763.44"/><polygon class="cls-3" points="845.45 1763.44 810.59 1763.44 801.17 1671.32 854.87 1671.32 845.45 1763.44"/><polygon class="cls-2" points="1190.67 1763.45 1155.8 1763.45 1146.38 1671.32 1200.09 1671.32 1190.67 1763.45"/><rect class="cls-2" x="1003.83" y="397.2" width="6.41" height="317.18"/><rect class="cls-2" x="955.56" y="442.49" width="15.57" height="611.32"/><path class="cls-2" d="M1079,1060.9c-55.26,0-100-12-100-26.79,0-2.73,1.53-5.36,4.37-7.85l-.48-.17H942.59l-.13.05c2.93,2.52,4.5,5.19,4.5,8,0,18.94-62.71,26.91-101.31,26.78h0v5.8h235.75v-5.8l-.05,0Z"/><path class="cls-2" d="M904.93,424.43h127.73a0,0,0,0,1,0,0v4.21A18.62,18.62,0,0,1,1014,447.26H923.55a18.62,18.62,0,0,1-18.62-18.62v-4.2A0,0,0,0,1,904.93,424.43Z"/><path class="cls-4" d="M1152,408.41c0,5.16-21.71,9.82-56.64,13.1-116.85,11-312.71,3-312.71-13.1,0-.63,120.66-222.89,120.66-222.89h128S1152,407.78,1152,408.41Z"/><path class="cls-2" d="M1018.07,717.71c0,5.49-4.84,9.94-10.82,9.94s-10.81-4.45-10.81-9.94,4.84-9.94,10.81-9.94S1018.07,712.22,1018.07,717.71Z"/><rect class="cls-3" x="625.77" y="1066.67" width="598.38" height="606.78"/><rect class="cls-2" x="1050.62" y="1066.67" width="173.53" height="606.78"/><rect class="cls-2" x="642.66" y="1265.43" width="408.53" height="10.46"/><rect class="cls-2" x="642.66" y="1433.32" width="408.53" height="10.46"/><path class="cls-2" d="M2285.16,1763.45,2274.84,1429a28.07,28.07,0,0,0-28.05-27.24h-.91a28.1,28.1,0,0,0-27.22,29c0,.6.07,1.33.13,2l33.75,330.78Z"/><path class="cls-2" d="M2495.87,1764.85l10.31-334.5a28.08,28.08,0,0,1,28.06-27.25l.9,0a28.11,28.11,0,0,1,27.23,29c0,.6-.07,1.33-.14,2l-33.74,330.78Z"/><path class="cls-5" d="M2555.62,1461.09H2211.2a44.74,44.74,0,0,1-44.73-44.74h0a55.25,55.25,0,0,1,55.25-55.25h323.39a55.25,55.25,0,0,1,55.25,55.25h0A44.74,44.74,0,0,1,2555.62,1461.09Z"/><path class="cls-2" d="M2905.06,1763.45H339a10.46,10.46,0,0,0-10.56,9.55,10.23,10.23,0,0,0,10.21,10.91h2566.4a10.23,10.23,0,0,0,10.23-10.23h0A10.23,10.23,0,0,0,2905.06,1763.45Z"/><path class="cls-4" d="M2770.52,1763.46c-.87-5.11-4.94-9-9.86-9h-180.1c-4.91,0-9,3.88-9.85,9Z"/><path class="cls-6" d="M2634.83,1754.63l-55.1-.15s10.81-21.61,30.16-32.08,52.79-10.23,52.79-10.23Z"/><path class="cls-5" d="M2673.92,1754.75s3.74-41.3-10.54-42.58-28.55,42.46-28.55,42.46Z"/><path class="cls-6" d="M2897,1763.41c-.63-21.2-19.57-38.22-42.86-38.22s-42.23,17-42.86,38.22Z"/><path class="cls-4" d="M2902.37,1763.51c-.43-5.09-2.43-8.94-4.85-8.94h-88.71c-2.42,0-4.42,3.85-4.85,8.94Z"/><path class="cls-7" d="M1316,582.32c40.6-5.77,78.37,9.44,106.9,38.87,65.29,67.35,14.94,110.49,36.42,198.7-12,13.36-26.89,23.9-46.25,29.07-91.49,25.54-194.18,11.17-263.33-58.15l-1.09-1c19.45-50.31,52.06-119.54,65.37-136.14C1239.79,621.56,1265.86,589.45,1316,582.32Z"/><path class="cls-8" d="M1311.44,769.35s-.4,2.07-1.11,5.61c-3.43,16.95-14.13,67.42-23,82.88-10.77,18.67,24.35,102.74,70.2,95.47,13.65-2.17-7.75-45.19-3.14-66,2.61-11.78,10.52-48.46,16.9-78.11,4.91-22.78,8.91-41.42,8.91-41.42Z"/><path class="cls-4" d="M1310.33,775c-.33,1.62-.72,3.55-1.18,5.72a80.29,80.29,0,0,0,19.46,22.57c13.86,11.13,27.67,15.74,40.57,15.56.7-3.26,1.4-6.48,2.07-9.62,4.91-22.78,8.91-41.42,8.91-41.42l-68.72,1.58S1311,771.42,1310.33,775Z"/><path class="cls-8" d="M1358.92,619.39a83.14,83.14,0,0,0-48.32,27.67c-20.3,24.09-42.19,98.59,8.25,139.1s100.27-5.34,107.65-54S1432.4,617.64,1358.92,619.39Z"/><path class="cls-8" d="M1434.28,731.63c-6,10.74-16.13,16.68-22.57,13.28s-6.79-14.87-.77-25.6,16.12-16.69,22.57-13.28S1440.3,720.89,1434.28,731.63Z"/><path class="cls-7" d="M1367.46,618.27s-43.27,70.85-74.22,74.12-35,40.92-35,40.92,11.06-86.75,41.71-103.48S1367.46,618.27,1367.46,618.27Z"/><path class="cls-8" d="M1303.36,709.27c2.52,12.58-2.55,24.12-11.31,25.77s-17.91-7.21-20.43-19.79,2.55-24.12,11.31-25.77S1300.84,696.69,1303.36,709.27Z"/><path class="cls-9" d="M1041.71,916.75l8.49-4.33c50.34-25.71,111.26-4.42,136.3,47.63l185.27,385.07c22.72,47.21,74.55,71.07,123.58,56.89l338.52-98c45.7-13.23,93,15,104.85,62.61h0l-558.11,189.83Z"/><path class="cls-6" d="M2346.61,1304.39s274.08-16.06,284.8.9-93.71,41.12-103.57,47.32c-84,52.78-76.42,20.28-95.17,15.81s-70-6.89-70-6.89Z"/><path class="cls-10" d="M1407.33,1417.65s9.9,18.42,19.27,23c34.58,16.73,101.54-8.67,101.54-8.67l421.23-97.29,446.42,29.63s15.23-54.56,7.85-76.88l-408.88-86.12-469.38,47.63Z"/><path class="cls-9" d="M1938.72,1374.37h0c-1.66-12.7-3.86-25.31-11.64-34.6-20.57-24.6-59.64-34.68-92.62-25.48l-402.62,124.22a11.22,11.22,0,0,1-10.21-1.9c-4-3.13-9.25-7-10.05-6.27-18,17.07-28.37,125.17-28.37,125.17l.54,1Z"/><path class="cls-11" d="M2293.88,1314.38s41.47,16.69,76,34.17c14.89,7.53,31.69,23.2,38,24.76,29.81,7.32,36.42-10.17,48.47-28.25,7.6-11.4,40.49-43.18,61.89-64.86,12.53-12.69,20.79-30.67,15.2-36.61-16.74-17.78-57.86,28.43-92.08,40.27-18.14,6.28-37.75.75-57.1-3.79-22.9-5.36-52.83-23-52.83-23Z"/><path class="cls-12" d="M1357,1600a38.23,38.23,0,0,1-34-20.88L1007.05,964.23a38.92,38.92,0,0,1,16.34-52.2A38.12,38.12,0,0,1,1075,928.55l315.88,614.89a38.91,38.91,0,0,1-16.35,52.19A37.8,37.8,0,0,1,1357,1600Z"/><path class="cls-12" d="M1970.08,1381.7a40.16,40.16,0,0,0-49.84-27.22L1342.43,1524l32,74.31,568.44-166.79A40.17,40.17,0,0,0,1970.08,1381.7Z"/><path class="cls-12" d="M1308.15,1763.45l78.19-191.12c.41-1,.8-2.11,1.12-3.17a35.61,35.61,0,1,0-68.16-20.63l-64.37,212.74c-.21.7-.4,1.47-.54,2.18Z"/><path class="cls-13" d="M1538.57,1246.68s284.41-161.84,397-175.77c42.81-5.29,448.17,203.93,448.17,203.93l-42.36,73.23s-247-62.73-322.65-93.57c-21.74-8.86-81.22-47.18-81.22-47.18Z"/><path class="cls-6" d="M1349.27,897.33s246.88,181.84,270.94,185c18.12,2.37,199.81-53.17,199.81-53.17L1785.91,1097s-149,83.81-202.31,81.55c-62.53-2.64-209.22-126.4-209.22-126.4Z"/><path class="cls-3" d="M1550.12,1045.87s-57.82,83.21-59.21,105.53l-121.41-91.58-20.23-162.49Z"/><path class="cls-14" d="M1221.64,851.3s-29.92,82-17.87,181.11S1407.16,1435,1407.16,1435s40.44-6.28,71.14-42.38c12.9-15.16,60.27-146,60.27-146s-60.27-58.92-65.62-97.76-11.25-80.38-27.32-140.64S1279.23,824.51,1221.64,851.3Z"/><path class="cls-12" d="M1222,1314.94l537.68-32.43,41.12,57.35c6,276.72,7.19,383.76,7.44,423.65h52.22c2.88-44.6,8.81-155.86,20.43-433.29-.09,0-82.84-82.19-103.78-97.79l-557.82,2.22a40.18,40.18,0,1,0,2.71,80.29Z"/><path class="cls-8" d="M1415.82,1002.2l-87.58,130.89s-13.43-88-23.91-182.75c-40.68,5.52-76.91,16.43-112.26,36.13,17,92.18,72.35,246.41,122.74,265,39.21,14.47,112.19-178,112.19-178Z"/><path class="cls-3" d="M1305,918c-6-29.1-13.07-58.3-44.53-67.52-19.5-5.72-41.37-.25-57,12.52-18.53,15.19-23.71,39.55-23.62,62.61.19,52.37,16.35,103.44,32.39,154.36,35.36-19.69,67.72-13.58,108.4-19.1C1324.48,1014.22,1312.86,955.87,1305,918Z"/><path class="cls-5" d="M1469.44,1056.64h14.75l-1.84-15.72h-12.91c-6.1,0-11.06-7.05-11.06-15.72v-15.71c0-8.67,5-15.72,11.06-15.72H1486V978.05h-16.59c-12.2,0-22.12,14.1-22.12,31.44v15.71C1447.32,1042.54,1457.24,1056.64,1469.44,1056.64Z"/><path class="cls-5" d="M1571.05,975.67v74.95a31.18,31.18,0,0,1-31.17,31.17h-26.72a31.18,31.18,0,0,1-31.17-31.17V966.17h89.06Z"/><path class="cls-8" d="M1457.26,977.66c7.48-.18,24.39,9.7,26.47,18s-2.28,17.72-1.89,23.58c.35,5.25,1.68,13.64-.26,20.4-.54,1.89-10.34,12.79-11.56,16.87s-44.21,19.9-44.21,19.9l-10.57-73.73S1425.09,978.44,1457.26,977.66Z"/><path class="cls-15" d="M1679.65,862.26l-60,253.61c-1.43,6.05.82,12.19,5,13.5l92.45,29.31,56.19-225.43s-59.52-56.44-81.85-77.6C1687.28,851.74,1681.35,855.07,1679.65,862.26Z"/><path class="cls-10" d="M1632.29,1105.12l52.21-220.67c1.7-7.2,7.63-10.53,11.76-6.62l65.25,61.87L1711.07,1142l-73.81-23.4C1633.12,1117.31,1630.86,1111.18,1632.29,1105.12Z"/><path class="cls-9" d="M1746.32,837.21l-124.1,311.61c-2.86,7.18-.13,14.52,5.68,15.3l135.82,18.31,100-245.9L1762.09,830.82C1757.51,826.05,1749.46,829.32,1746.32,837.21Z"/><path class="cls-6" d="M1840.77,1026s1-26.16-9.19-19.36-8.68,22.5-11.23,25.63-8.68,8.37-10.21,18.83-8.68,17.79-9.71,24.59a59.18,59.18,0,0,0-.51,12.55s33.19-4.18,34.21-18.31S1840.77,1026,1840.77,1026Z"/><path class="cls-10" d="M322.51,1347.19a11.47,11.47,0,1,0,12.73-10.07A11.48,11.48,0,0,0,322.51,1347.19Z"/><path class="cls-4" d="M339.58,1354.82c-4.28,6.54-14.48,2.81-13.58-4.92a7.42,7.42,0,1,1,13.58,4.92Z"/><path class="cls-10" d="M265,1364.51a11.47,11.47,0,1,1-16.17-1.37A11.46,11.46,0,0,1,265,1364.51Z"/><path class="cls-4" d="M262.7,1379.14a7.42,7.42,0,1,1-4.16-13.06A7.42,7.42,0,0,1,262.7,1379.14Z"/><path class="cls-10" d="M316.74,1346.86a11.48,11.48,0,1,1-11.51-11.43A11.47,11.47,0,0,1,316.74,1346.86Z"/><path class="cls-4" d="M305.57,1356.6a7.42,7.42,0,0,1-6.23-11.47c4.06-6.21,13.6-3.2,13.62,4A7.4,7.4,0,0,1,305.57,1356.6Z"/><path class="cls-10" d="M367.72,1366.6a11.47,11.47,0,1,1-1.47-16.16A11.47,11.47,0,0,1,367.72,1366.6Z"/><path class="cls-4" d="M363.35,1365.94a7.42,7.42,0,1,1-1-10.45A7.43,7.43,0,0,1,363.35,1365.94Z"/><path class="cls-10" d="M281,1499a11.48,11.48,0,1,0-15.41,5.11A11.48,11.48,0,0,0,281,1499Z"/><path class="cls-4" d="M278.16,1496a7.42,7.42,0,1,1-2.87-10.7,7.4,7.4,0,0,1,2.87,10.7Z"/><path class="cls-10" d="M242.5,1460.16a11.48,11.48,0,1,0-15.09-6A11.47,11.47,0,0,0,242.5,1460.16Z"/><path class="cls-4" d="M246.35,1453.05a7.42,7.42,0,1,1-9.14-10.89,7.43,7.43,0,0,1,9.14,10.89Z"/><path class="cls-10" d="M238,1405.67a11.47,11.47,0,1,0-7.7-14.28A11.47,11.47,0,0,0,238,1405.67Z"/><path class="cls-4" d="M236.89,1399.12a7.42,7.42,0,1,1,13.63-1.39A7.37,7.37,0,0,1,236.89,1399.12Z"/><path class="cls-10" d="M245.1,1465.32A11.47,11.47,0,1,1,241,1481,11.47,11.47,0,0,1,245.1,1465.32Z"/><path class="cls-4" d="M250.81,1481a7.42,7.42,0,1,1,8.31-10.9A7.43,7.43,0,0,1,250.81,1481Z"/><path class="cls-10" d="M269.61,1361.06a11.47,11.47,0,1,0,3.28-15.89A11.48,11.48,0,0,0,269.61,1361.06Z"/><path class="cls-4" d="M284.3,1363a7.41,7.41,0,1,1,2.13-2.13A7.54,7.54,0,0,1,284.3,1363Z"/><path class="cls-10" d="M236.7,1411.3a11.47,11.47,0,1,1-13.26,9.36A11.48,11.48,0,0,1,236.7,1411.3Z"/><path class="cls-4" d="M235.78,1430a7.42,7.42,0,1,1,8.57-6A7.42,7.42,0,0,1,235.78,1430Z"/><path class="cls-4" d="M318.08,1419.84l14-60.13-2.11-.49-14.59,62.66L308,1358l-2.15.25,7.13,61.33L285,1364.49l-1.94,1,29.11,57.37-46.76-44.18-1.48,1.57,44.88,42.41L252,1398.41l-.85,2,59.18,25.24-64.23-3.78L246,1424l61.63,3.62-59.07,17.95.63,2.07L310.73,1429l-51.62,38.39,1.29,1.74,49.54-36.84L276.22,1484l1.82,1.18,75.81-115.69-1.8-1.19Z"/><rect class="cls-4" x="427.19" y="1357.65" width="9.27" height="289.92" transform="translate(-1061.72 1040.42) rotate(-56.77)"/><path class="cls-10" d="M439.26,1053.93a19.42,19.42,0,1,0,27.1-4.46A19.43,19.43,0,0,0,439.26,1053.93Z"/><path class="cls-4" d="M458.28,1079.23c-11.71,6.17-23.75-7.72-16.07-18.43a12.56,12.56,0,1,1,16.07,18.43Z"/><path class="cls-10" d="M339.89,1032.4a19.42,19.42,0,1,1-22.82-15.27A19.41,19.41,0,0,1,339.89,1032.4Z"/><path class="cls-4" d="M324.48,1052.2a12.56,12.56,0,0,1-8.3-23.43,12.78,12.78,0,0,1,3.42-1.21,12.52,12.52,0,0,1,9.43,1.88C338.32,1035.66,335.35,1050.05,324.48,1052.2Z"/><path class="cls-10" d="M431,1048.71a19.42,19.42,0,1,1-7.66-26.37A19.42,19.42,0,0,1,431,1048.71Z"/><path class="cls-4" d="M406.46,1054a12.58,12.58,0,0,1,.17-22.11c11.12-5.85,22.78,6.43,16.88,17.15A12.55,12.55,0,0,1,406.46,1054Z"/><path class="cls-10" d="M490.28,1119.75a19.42,19.42,0,1,1,11.08-25.13A19.42,19.42,0,0,1,490.28,1119.75Z"/><path class="cls-4" d="M484.36,1115.18a12.56,12.56,0,1,1,7.16-16.25A12.57,12.57,0,0,1,484.36,1115.18Z"/><path class="cls-10" d="M253.19,1244.67a19.42,19.42,0,1,0-27-5.07A19.42,19.42,0,0,0,253.19,1244.67Z"/><path class="cls-4" d="M251.51,1238a12.56,12.56,0,1,1,4.53-18.2,12.54,12.54,0,0,1-4.53,18.2Z"/><path class="cls-10" d="M228.12,1155.59a19.42,19.42,0,1,0-17.42-21.23A19.41,19.41,0,0,0,228.12,1155.59Z"/><path class="cls-4" d="M239.67,1148.22a12.56,12.56,0,1,1-4.61-23.61c12.36,1.22,15.61,17.82,4.61,23.61Z"/><path class="cls-10" d="M266.18,1071.24a19.42,19.42,0,1,0,.3-27.46A19.41,19.41,0,0,0,266.18,1071.24Z"/><path class="cls-4" d="M269.88,1060.61a12.45,12.45,0,0,1,3.77-8.84,12.56,12.56,0,1,1-3.77,8.84Z"/><path class="cls-10" d="M227.75,1165.37a19.42,19.42,0,1,1-19,19.83A19.42,19.42,0,0,1,227.75,1165.37Z"/><path class="cls-4" d="M223.32,1193.31a12.56,12.56,0,1,1,21.25-9.33C244.8,1195.19,231.33,1201,223.32,1193.31Z"/><path class="cls-10" d="M349.55,1031.08a19.42,19.42,0,1,0,17.89-20.84A19.42,19.42,0,0,0,349.55,1031.08Z"/><path class="cls-4" d="M369.7,1046a12.53,12.53,0,1,1,4.89-1.4A12.58,12.58,0,0,1,369.7,1046Z"/><path class="cls-10" d="M259.6,1078.49a19.42,19.42,0,1,1-27.3,3A19.42,19.42,0,0,1,259.6,1078.49Z"/><path class="cls-4" d="M242.87,1105.48a12.56,12.56,0,1,1,17.66-1.92A12.58,12.58,0,0,1,242.87,1105.48Z"/><path class="cls-4" d="M373.12,1157.88l70.05-77.56-2.72-2.46-73,80.82L408.87,1058l-3.39-1.39-39.75,96.66,3.79-104.45-3.67-.13-3.94,108.83-33-103.78-3.49,1.11,31.68,99.6L292.85,1072l-2.89,2.25,66.93,85.91-92-58.26-2,3.09,88.3,55.91L249,1139l-.77,3.59,106.5,22.79-107.94,14.51.49,3.63,103.58-13.92-92.35,48.93,1.72,3.24L467.4,1112.63l-1.7-3.25Z"/><rect class="cls-4" x="465.82" y="1128.35" width="15.7" height="490.76" transform="translate(-586.01 379.46) rotate(-27.8)"/><path class="cls-12" d="M569.71,1599.45s158.94-118,180.73-168.84-23.13-45.1-23.13-45.1,64.18-90.94,47.14-121-52.48,8.33-52.48,8.33,29.78-123,3.89-129.87c-48.22-12.75-87.79,119.66-87.79,119.66s3.55-55-26.63-47.57C565.92,1226.24,590,1344.58,590,1344.58s-14.51-21-39.47-1C505.74,1379.38,569.71,1599.45,569.71,1599.45Z"/><path class="cls-16" d="M543.8,1346.62c25-20,46.2-2,46.2-2s-24.08-118.34,21.44-129.51c30.18-7.4,26.63,47.57,26.63,47.57s39.57-132.41,87.79-119.66L568.52,1599.07C561.49,1570.59,502,1380.08,543.8,1346.62Z"/><path class="cls-17" d="M569.92,1595.34s162.89-.17,196.51-28.4-7.62-30.43-7.62-30.43,77.84-41.32,76.71-68.87-27.53-22-27.53-22,53.81-48.19,42.76-71.56c-17-35.9-93.93,32.19-93.93,32.19s5.89-27.31-18-33c-36-8.61-72.51,93.73-72.51,93.73s17.21-46.1-7.51-41C614.46,1435.19,569.92,1595.34,569.92,1595.34Z"/><path class="cls-12" d="M563.15,1604.42S418.58,1481,400.94,1431.34s24.74-41.51,24.74-41.51-55.55-90.41-37.52-118,49.43,11.1,49.43,11.1-20.87-118.85,4.18-123.79C488.42,1150,518,1278.34,518,1278.34s0-52.52,28.23-43.64c42.63,13.38,12.54,124.52,12.54,124.52s15.74-41.55,38.28-21C637.51,1375,563.15,1604.42,563.15,1604.42Z"/><path class="cls-18" d="M602.24,1332.34c-26.13-15.67-39.1,5.21-39.1,5.21s25.75-89.47-16.88-102.85C518,1225.82,518,1278.34,518,1278.34S488.42,1150,441.77,1159.17l122,443.48C572.23,1576,633.37,1351,602.24,1332.34Z"/><path class="cls-19" d="M548.6,1586.7s-158.82.06-180.91-2.51,2.32-22.28,2.32-22.28-49.42,1.8-56.95-10.22,12.65-16.76,12.65-16.76-49.22-14.26-46.87-24.73c4.38-19.49,58.73-6.78,58.73-6.78s-20.18-9.8-12-18.91c12.37-13.74,65.22,23.62,65.22,23.62s-19.84-37.53-8.13-42.29C403.67,1457.31,548.6,1586.7,548.6,1586.7Z"/><path class="cls-13" d="M434,1765.47H698.27c33.67-30.75,54.18-73.1,53.43-119.55-.38-23.46-5.21-43.92-15.28-64l-340.79,3.83a151.59,151.59,0,0,0-14.1,66.27C382.25,1696.28,402.12,1736.18,434,1765.47Z"/><path class="cls-10" d="M599.64,1063.52H775.18c15.57,0,28.19-13.61,28.19-30.4h0c0-16.78-12.62-30.39-28.19-30.39H599.64a49.43,49.43,0,0,1,1.25,59.06Z"/><path class="cls-4" d="M801.06,1033.12h0c0-16.78-12.77-30.39-28.51-30.39H596.45a1.53,1.53,0,0,1-1.48-1.59h0a1.53,1.53,0,0,1,1.48-1.56H875.8c17.38,0,31.47,15,31.47,33.54h0c0,18.53-14.09,33.55-31.47,33.55H596.45a1.53,1.53,0,0,1-1.48-1.56h0a1.54,1.54,0,0,1,1.48-1.59h176.1C788.29,1063.52,801.06,1049.91,801.06,1033.12Z"/></g></g></svg>