<svg xmlns="http://www.w3.org/2000/svg" viewBox="0 0 2970 2000"><defs><style>.cls-1{isolation:isolate;}.cls-2{fill:#f3f6f9;}.cls-3{fill:#cafbff;}.cls-4{fill:#7fc6a6;}.cls-5{fill:#3f9896;}.cls-6{fill:#fff;}.cls-7{fill:#ff424d;}.cls-8{fill:#aac9f8;}.cls-9{fill:#21111d;}.cls-10{opacity:0.3;}.cls-10,.cls-13,.cls-29{mix-blend-mode:multiply;}.cls-11{fill:#4cb7d8;}.cls-12{fill:#3aa1c9;}.cls-14,.cls-29{opacity:0.5;}.cls-15{fill:#258d8c;}.cls-16{fill:#49263e;}.cls-17{fill:#ffb357;}.cls-18{fill:#f99247;}.cls-19{fill:#fe9f73;}.cls-20{fill:#fec786;}.cls-21{fill:#e01b2f;}.cls-22{fill:#dcf4ff;}.cls-23{fill:#fc4963;}.cls-24{fill:#f07162;}.cls-25{fill:#fbfdfc;}.cls-26{fill:#e23e3d;}.cls-27{fill:#fd7583;}.cls-28{fill:#683d46;}.cls-30{fill:#f78c63;}.cls-31{fill:#472a31;}.cls-32{fill:#d7e4f7;}.cls-33{fill:#fecc86;}.cls-34{fill:#105e5a;}.cls-35{fill:#fdffdc;}.cls-36{fill:#fc4f68;}.cls-37{fill:#61a3c5;}</style></defs><g class="cls-1"><g id="katman_2" data-name="katman 2"><g id="Layer_1" data-name="Layer 1"><rect class="cls-2" width="2970" height="2000"/><path class="cls-3" d="M568.07,1766.85s-199.88-124.54-163.59-611.17c27.36-367,304.61-857.67,875.6-939.81,383.07-55.11,365,237.45,785.66,306.7,536.05,88.26,804.6,717.12,422.21,1236.09Z"/><path class="cls-4" d="M1869.53,1242.17s168.28,21.3,269.54-167.17C2139.07,1075,1886.21,1055.6,1869.53,1242.17Z"/><path class="cls-5" d="M1922.13,1075.33a2.52,2.52,0,0,1-1.09,4.8h-2.34a99,99,0,0,0-15.8,37H1921a2.53,2.53,0,1,1,0,5.05h-19c-1.87,14.32-.3,30,6.19,47,0,0,93.24-31.78,98-155.92C2006.32,1013.25,1952.73,1034.52,1922.13,1075.33Z"/><path class="cls-5" d="M1422.13,989.51s-63.85-37.25-48.91-129.28C1373.22,860.23,1465.82,920.55,1422.13,989.51Z"/><path class="cls-4" d="M1439.77,1049s-127-9.39-173.38-163.09C1266.39,885.89,1455.27,909.26,1439.77,1049Z"/><path class="cls-5" d="M960,1768.26c-4.55-3.63-84.15-144.09-133.25-75.91,0,0-73.64-250-174.55-238.19s-15.46,197.28-15.46,197.28-86.36-35.45-66.36,58.19c0,0-110-20-101.83,59.09Z"/><ellipse class="cls-5" cx="525.93" cy="1546.41" rx="20.46" ry="38.18" transform="translate(-865.85 691.45) rotate(-39.66)"/><path class="cls-5" d="M521.14,1597.25c8,9.61,10.25,20.86,5.1,25.13s-15.78-.06-23.74-9.68-10.26-20.86-5.11-25.13S513.18,1587.64,521.14,1597.25Z"/><path d="M640.73,1669.73a1,1,0,0,0,.65-.45,1,1,0,0,0-.29-1.46c-.88-.59-21.81-14.4-40.19-10.41h0a1.06,1.06,0,0,0,.45,2.07h0c17.49-3.79,38.36,10,38.57,10.1A1.08,1.08,0,0,0,640.73,1669.73Z"/><path d="M626.66,1671.3a1,1,0,0,0,.36-1.91c-.4-.26-10.07-6.52-27.24-5.46a1.07,1.07,0,0,0-1,1.12,1.05,1.05,0,0,0,1.12,1c16.47-1,25.85,5,25.94,5.11A1,1,0,0,0,626.66,1671.3Z"/><path d="M888.83,1712.14a1.06,1.06,0,0,0,.76-1.79c-.74-.77-18.27-18.69-37.07-18.69a1.06,1.06,0,1,0,0,2.11h0c17.91,0,35.37,17.86,35.55,18A1.05,1.05,0,0,0,888.83,1712.14Z"/><path d="M874.74,1710.7a1.06,1.06,0,0,0,.76-1.8c-.34-.34-8.46-8.51-25.46-11.1a1.05,1.05,0,1,0-.32,2.08c16.25,2.49,24.19,10.42,24.27,10.5A1,1,0,0,0,874.74,1710.7Z"/><path class="cls-5" d="M2039.18,1767.36c4.56-3.62,84.68-143.78,133.53-75.42,0,0,74.55-249.74,175.42-237.55s14.73,197.34,14.73,197.34,86.5-35.15,66.16,58.42c0,0,110.08-19.6,101.6,59.47Z"/><ellipse class="cls-5" cx="2474.06" cy="1547.1" rx="38.18" ry="20.46" transform="translate(-299.25 2454.44) rotate(-50.14)"/><ellipse class="cls-5" cx="2487.95" cy="1605.72" rx="22.6" ry="12.11" transform="translate(-339.25 2486.16) rotate(-50.14)"/><path d="M2358.8,1670a1,1,0,0,1-.65-.44,1.07,1.07,0,0,1,.29-1.47c.89-.58,21.87-14.31,40.23-10.26h0a1.06,1.06,0,0,1-.45,2.07h0c-17.48-3.85-38.4,9.82-38.61,10A1,1,0,0,1,2358.8,1670Z"/><path d="M2372.86,1671.62a1,1,0,0,1-.65-.45,1,1,0,0,1,.3-1.46c.41-.27,10.1-6.49,27.26-5.36a1.06,1.06,0,0,1-.14,2.11c-16.46-1.09-25.87,5-26,5A1,1,0,0,1,2372.86,1671.62Z"/><path d="M2110.55,1711.5a1.06,1.06,0,0,1-.75-1.79c.74-.76,18.33-18.63,37.13-18.56a1.06,1.06,0,1,1,0,2.11h0c-17.92-.06-35.44,17.74-35.62,17.92A1.07,1.07,0,0,1,2110.55,1711.5Z"/><path d="M2124.64,1710.11a1.05,1.05,0,0,1-.75-1.8c.34-.34,8.49-8.48,25.5-11a1,1,0,0,1,1.2.89,1.06,1.06,0,0,1-.89,1.2c-16.26,2.42-24.22,10.32-24.3,10.4A1.09,1.09,0,0,1,2124.64,1710.11Z"/><path class="cls-6" d="M2281.81,1229.33c41.55-2.19,184-8.2,281.32,6.24,12.63,1.87,20.68-13.27,11.94-22.58-5.11-5.44-13.83-9.88-28.49-10.91,0,0,5.05-90.9-63.61-96.92-78.76-6.91-79.71,82.4-79.71,82.4s-35.8-34-61.61,9.1c0,0-44.62-25.78-67.12,21.84A7.6,7.6,0,0,0,2281.81,1229.33Z"/><path class="cls-6" d="M2243.75,896c-36.6-2.1-122.41-5.76-197,.53-30.86,2.6-57.51-22-56.81-53,.28-12.67,4.82-27.42,16.59-44.12,45.29-64.32,124-2.9,123.26,29.76,0,0,15.91-49.17,64.25-40.56s31.25,80.11,31.25,80.11,15.6-3.3,26.41,4.08C2262.34,880.07,2256.6,896.75,2243.75,896Z"/><path class="cls-6" d="M851.67,1140.4c-53.15-3-177.77-8.35-286.11.78-44.82,3.78-83.52-32-82.51-77,.41-18.4,7-39.81,24.1-64.08,65.77-93.42,180.11-4.2,179,43.22,0,0,23.12-71.4,93.32-58.9s45.38,116.34,45.38,116.34,22.66-4.78,38.36,5.94C878.67,1117.25,870.34,1141.47,851.67,1140.4Z"/><path class="cls-6" d="M2033.75,1488.32s-57.37,144.34-9.25,253.52l-1102.87,9.25-101.77-9.25-89.7-55.58V1601.2l24.93-70.32,81.42-42.56Z"/><path class="cls-7" d="M870,1765.14H2061.51a14.05,14.05,0,1,0,0-28.1H870c-71.92,0-130.43-54.3-130.43-121S798.05,1495,870,1495H2061.51a14.05,14.05,0,0,0,0-28.1H870c-87.42,0-158.54,66.9-158.54,149.13S782.55,1765.14,870,1765.14Z"/><polygon class="cls-7" points="735.97 1651.27 750.96 1640.77 752.7 1661.93 735.97 1651.27"/><path class="cls-8" d="M2017.56,1619.13H1432.82a3.13,3.13,0,1,1,0-6.25h584.74a3.13,3.13,0,0,1,0,6.25Z"/><path class="cls-8" d="M1350.47,1619.13H782.39a3.13,3.13,0,1,1,0-6.25h568.08a3.13,3.13,0,1,1,0,6.25Z"/><path class="cls-8" d="M1089.13,1675.07H797.65a3.12,3.12,0,0,1,0-6.24h291.48a3.12,3.12,0,0,1,0,6.24Z"/><path class="cls-8" d="M2017.56,1675.07H1131.89a3.12,3.12,0,0,1,0-6.24h885.67a3.12,3.12,0,1,1,0,6.24Z"/><path class="cls-9" d="M2061.51,1768.26H870c-89.14,0-161.66-68.3-161.66-152.25S780.83,1463.75,870,1463.75H2061.51a17.18,17.18,0,0,1,0,34.35,3.13,3.13,0,1,1,0-6.25,10.93,10.93,0,1,0,0-21.85H870c-85.7,0-155.41,65.49-155.41,146S784.27,1762,870,1762H2061.51a10.93,10.93,0,0,0,0-21.86,3.13,3.13,0,1,1,0-6.25,17.18,17.18,0,0,1,0,34.35Z"/><path class="cls-5" d="M1344.93,1563.15s37.53,93.49,15.9,162.31l-30.49-47.12s-20.82,25-33.58,47.12c0,0-23.29-153.7-68.43-162.31Z"/><path class="cls-8" d="M2017.56,1563.15H797.65a3.12,3.12,0,0,1,0-6.24H2017.56a3.12,3.12,0,1,1,0,6.24Z"/><path class="cls-6" d="M967.49,1209.85s53.23,134,8.58,235.28l1023.54,8.58,94.46-8.58,83.25-51.59v-78.93l-23.15-65.26-75.56-39.5Z"/><g class="cls-10"><path class="cls-11" d="M1542.16,1440.67l493.11,9.8,58.8-5.34,83.25-51.59v-78.93l-23.15-65.26-75.56-39.5H1533.86l8.3,6.17S1593.32,1336.33,1542.16,1440.67Z"/></g><path class="cls-12" d="M2047.56,1466.75H941.72a13,13,0,0,1,0-26.08H2047.56c66.75,0,121.05-50.39,121.05-112.33S2114.31,1216,2047.56,1216H941.72a13,13,0,0,1,0-26.08H2047.56c81.13,0,147.13,62.09,147.13,138.4S2128.69,1466.75,2047.56,1466.75Z"/><g class="cls-13"><path class="cls-8" d="M1525.19,1331.47H982.51a3.12,3.12,0,1,1,0-6.24h542.68a3.12,3.12,0,1,1,0,6.24Z"/></g><g class="cls-13"><path class="cls-8" d="M2128.84,1331.47H1601.62a3.12,3.12,0,1,1,0-6.24h527.22a3.12,3.12,0,1,1,0,6.24Z"/></g><g class="cls-13"><path class="cls-8" d="M2114.67,1383.39H1844.16a3.13,3.13,0,0,1,0-6.25h270.51a3.13,3.13,0,1,1,0,6.25Z"/></g><g class="cls-13"><path class="cls-8" d="M2114.74,1279.52H1007.79a3.13,3.13,0,0,1,0-6.25H2114.74a3.13,3.13,0,0,1,0,6.25Z"/></g><path class="cls-9" d="M2047.56,1469.88H941.72a16.17,16.17,0,0,1,0-32.33,3.12,3.12,0,1,1,0,6.24,9.92,9.92,0,0,0,0,19.84H2047.56c79.41,0,144-60.69,144-135.29s-64.6-135.28-144-135.28H941.72a9.92,9.92,0,0,0,0,19.84,3.12,3.12,0,1,1,0,6.24,16.16,16.16,0,1,1,0-32.32H2047.56c82.85,0,150.26,63.49,150.26,141.52S2130.41,1469.88,2047.56,1469.88Z"/><g class="cls-13"><path class="cls-8" d="M1804.48,1383.39h-822a3.13,3.13,0,0,1,0-6.25h822a3.13,3.13,0,0,1,0,6.25Z"/></g><g class="cls-13"><g class="cls-14"><path class="cls-15" d="M928.68,1203a13,13,0,0,0,13,13h577.52a13,13,0,1,0,0-26.08H941.72A13,13,0,0,0,928.68,1203Z"/></g><path class="cls-15" d="M1532.28,1453.71a13,13,0,0,0-13-13H941.72a13,13,0,0,0,0,26.08h577.52A13,13,0,0,0,1532.28,1453.71Z"/></g><path class="cls-16" d="M1764.72,1279.52s32.55,81.07,13.79,140.76L1752,1386.62a303.55,303.55,0,0,0-29,33.66s-20.19-133.3-59.34-140.76Z"/><path class="cls-6" d="M1933.2,981.65s-43.1,108.47-7,190.51l-828.78,7-76.48-7-67.41-41.76v-63.92l18.74-52.84,61.18-32Z"/><g class="cls-10"><path class="cls-11" d="M1467.88,1168.56l-399.28,7.93-47.61-4.33-67.41-41.76v-63.92l18.74-52.84,61.18-32h441.1l-6.72,5S1426.45,1084.07,1467.88,1168.56Z"/></g><path class="cls-17" d="M1058.65,1189.68h895.41a10.56,10.56,0,0,0,0-21.12H1058.65c-54.05,0-98-40.81-98-91s44-90.95,98-90.95h895.41a10.56,10.56,0,0,0,0-21.12H1058.65c-65.7,0-119.14,50.28-119.14,112.07S993,1189.68,1058.65,1189.68Z"/><g class="cls-13"><path class="cls-8" d="M1481.62,1080.13H1921a2.53,2.53,0,1,0,0-5.05H1481.62a2.53,2.53,0,1,0,0,5.05Z"/></g><g class="cls-13"><path class="cls-8" d="M1032.82,1080.13H1420a2.54,2.54,0,0,0,0-5.05H1032.82a2.54,2.54,0,0,0,0,5.05Z"/></g><g class="cls-13"><path class="cls-8" d="M1004.3,1122.17h219a2.53,2.53,0,1,0,0-5.05h-219a2.53,2.53,0,1,0,0,5.05Z"/></g><g class="cls-13"><path class="cls-8" d="M1004.3,1038.07H1921a2.53,2.53,0,0,0,0-5.06H1004.3a2.53,2.53,0,1,0,0,5.06Z"/></g><g class="cls-13"><path class="cls-8" d="M1255.47,1122.17H1921a2.53,2.53,0,1,0,0-5.05H1255.47a2.53,2.53,0,1,0,0,5.05Z"/></g><g class="cls-14"><path class="cls-18" d="M1964.62,976.09a10.56,10.56,0,0,1-10.56,10.56H1486.44a10.56,10.56,0,1,1,0-21.12h467.62A10.56,10.56,0,0,1,1964.62,976.09Z"/></g><path class="cls-18" d="M1475.88,1179.12a10.56,10.56,0,0,1,10.56-10.56h467.62a10.56,10.56,0,0,1,0,21.12H1486.44A10.56,10.56,0,0,1,1475.88,1179.12Z"/><path class="cls-7" d="M1188.24,1038.07s-31.35,47.45-13.84,103.18l24.69-38.15s16.86,20.22,27.2,38.15c0,0,19.81-96.22,56.36-103.18Z"/><path class="cls-9" d="M1058.65,1192.21h895.42a13.09,13.09,0,0,0,0-26.18,2.53,2.53,0,1,0,0,5,8,8,0,0,1,0,16.07H1058.65C994.35,1187.15,942,1138,942,1077.6s52.31-109.54,116.61-109.54h895.42a8,8,0,0,1,0,16.06,2.53,2.53,0,1,0,0,5.06,13.09,13.09,0,0,0,0-26.18H1058.65C991.56,963,937,1014.41,937,1077.6S991.56,1192.21,1058.65,1192.21Z"/><path class="cls-19" d="M2374,1763.28l-67.81-.23c-7.89.23-14.23-10.77-15.47-14.12l-18.66-31.75,62.41-11.72Z"/><path class="cls-7" d="M2408.7,1758.66H2290.39v-23.8s8.6-11.43,21.71-5.6c0,0,19.4,14,36.87-2.74l43.8,18.81S2408.7,1750.57,2408.7,1758.66Z"/><path class="cls-20" d="M2292.16,1758.66h121.68a0,0,0,0,1,0,0v7.09a0,0,0,0,1,0,0H2292.16a1.77,1.77,0,0,1-1.77-1.77v-3.55A1.77,1.77,0,0,1,2292.16,1758.66Z" transform="translate(4704.23 3524.41) rotate(180)"/><path class="cls-20" d="M1984.07,1733.17s24.06,39.36,91.68,33.3S2205.45,1656,2205.45,1656l82.76,93.87s45.93-14.51,61.06-38.29c0,0-88.81-147.42-131.21-147.93s-211.54,132.73-213.76,134.24S1984.07,1733.17,1984.07,1733.17Z"/><path class="cls-12" d="M2075.75,1567.13c1.68-.67,79.74,1.69,79.74,1.69l-2.7,32.63-41.38,6.06Z"/><path class="cls-12" d="M1916.24,1610.69s21.28,72.43,63.93,130.46c0,0,23.67-15.51,59.63-45.81S1916.24,1610.69,1916.24,1610.69Z"/><path class="cls-9" d="M2062.08,1754.88c.9,0,1.86,0,2.87-.1a.87.87,0,0,0,.79-.92.85.85,0,0,0-.91-.78c-11.12.81-14.64-3.39-14.67-3.43a.85.85,0,0,0-1.33,1.07C2049,1750.9,2052.3,1754.88,2062.08,1754.88Z"/><path class="cls-9" d="M2063.37,1748.76a33.62,33.62,0,0,0,7.29-.87.86.86,0,0,0-.37-1.67c-10.78,2.41-15-1.21-15-1.24a.85.85,0,0,0-1.2,0,.84.84,0,0,0,0,1.2C2054.26,1746.36,2056.94,1748.76,2063.37,1748.76Z"/><path class="cls-9" d="M2111.83,1568.46a.85.85,0,0,0,.86-.83.86.86,0,0,0-.84-.87l-26.49-.48a.85.85,0,1,0,0,1.7l26.49.48Z"/><path class="cls-9" d="M2128.41,1744.73a.85.85,0,0,0,.53-.18c50.84-40.63,88.15-105.69,88.52-106.34a.85.85,0,0,0-.32-1.16.84.84,0,0,0-1.16.31c-.37.65-37.52,65.44-88.1,105.86a.85.85,0,0,0,.53,1.51Z"/><path class="cls-9" d="M2288,1750.81l.53-.18a244.85,244.85,0,0,0,36.34-16.45.85.85,0,0,0-.83-1.49,245.38,245.38,0,0,1-35.52,16.14l-81.74-92.72a110.27,110.27,0,0,0,10.56-8.36.85.85,0,1,0-1.14-1.26,104.94,104.94,0,0,1-11.17,8.75l-.82.54Z"/><path class="cls-19" d="M2152.69,1576.94l-7.29,4-2.53,23.53,2.53,5.21s5.21.51,5.38-.67S2152.69,1576.94,2152.69,1576.94Z"/><path class="cls-21" d="M2195.58,1503.84l1.67-.37,34.94,6.23s-1.92.44-2,.44S2195.58,1503.84,2195.58,1503.84Z"/><polygon class="cls-22" points="2211.39 1622.02 2173.78 1607.33 2195.58 1503.84 2232.6 1510.14 2211.39 1622.02"/><polygon points="2194.32 1511.4 2193.69 1511.27 2195.3 1503.57 2197.24 1503.14 2197.3 1503.15 2232.02 1509.29 2231.91 1509.92 2197.26 1503.8 2195.85 1504.11 2194.32 1511.4"/><polygon class="cls-23" points="2211.39 1622.02 2136.75 1622.02 2157.97 1510.14 2232.6 1510.14 2211.39 1622.02"/><path class="cls-19" d="M2195.53,1611.91a4.77,4.77,0,0,0-4.43-4.72l-15-1a1.12,1.12,0,0,1-1-.81h0a1.1,1.1,0,0,1,1-1.39l22.2-1.47a3.66,3.66,0,0,0,3.42-4.79h0a5.89,5.89,0,0,0-5.82-4.17l-22.65,1.5a1.1,1.1,0,0,1-1.14-.81l-.09-.36a1.11,1.11,0,0,1,.78-1.36l24.27-6.52a4.75,4.75,0,0,0,3.43-5.48,4.54,4.54,0,0,0-5.6-3.35l-24.46,6.57a1.09,1.09,0,0,1-1.35-.78l-.31-1.14a1.11,1.11,0,0,1,.64-1.31l21.71-9a4.76,4.76,0,0,0,2.69-5.88,4.54,4.54,0,0,0-6-2.59s-33.39,11.81-38.84,13.25l10-4.69c7.39,6.92-1-2.53-7-3.76-6.74-1.35-24.53,15.12-24.53,15.12-.82,1.42,0,4.59,1.31,7,5,26.37,5.94,30.39,7.94,37.38l27.43-8.37a68.13,68.13,0,0,1,24.46-2.82l2.07.14A4.55,4.55,0,0,0,2195.53,1611.91Z"/><polygon class="cls-23" points="2147.29 1566.45 2145.42 1577.58 2161.36 1572.26 2161.22 1565.25 2147.29 1566.45"/><polygon class="cls-21" points="2158.1 1510.18 2159.43 1509.7 2232.19 1509.7 2232.6 1510.14 2158.1 1510.18"/><rect x="2118.32" y="1542.75" width="66.99" height="0.65" transform="translate(240.12 3375.23) rotate(-79.43)"/><polygon points="2211.66 1622.34 2170.65 1621.95 2170.66 1621.3 2211.12 1621.69 2222.02 1564.2 2222.66 1564.32 2211.66 1622.34"/><rect x="2219" y="1516.18" width="0.65" height="7.42" transform="translate(-470.24 1561.56) rotate(-35.29)"/><rect x="2157.57" y="1553.86" width="0.65" height="7.42" transform="translate(-503.3 1533.08) rotate(-35.29)"/><rect x="2162.5" y="1556.33" width="0.65" height="7.42" transform="translate(-503.81 1536.4) rotate(-35.3)"/><rect x="2218.37" y="1520.86" width="0.65" height="7.42" transform="translate(-473.05 1562.08) rotate(-35.29)"/><path class="cls-12" d="M1962.67,1471.92s-26.54,2.69-43,9.08-32,27.93-31,49.12,47.25,143.33,81.49,164.19,59.81,6,59.81,6l120.79-61.9s-10.1-45.42-24.56-58.21l-26.58,8.44-62.24-93.89S2017.48,1459.14,1962.67,1471.92Z"/><path class="cls-9" d="M1975,1638.64a.78.78,0,0,0,.33-.07c1.12-.46,112.56-46.45,150.59-57.35,1.82,2.08,10.71,13,18.2,36.34a.85.85,0,1,0,1.62-.52c-8.48-26.43-18.51-36.94-18.93-37.38l-.36-.36-.49.13c-37.63,10.66-150.15,57.1-151.29,57.57a.85.85,0,0,0-.46,1.11A.87.87,0,0,0,1975,1638.64Z"/><path class="cls-9" d="M2002.27,1627.53a.82.82,0,0,0,.47-.15.84.84,0,0,0,.23-1.18c-.34-.51-34.71-51.57-53.65-84.72a.86.86,0,0,0-1.17-.32.85.85,0,0,0-.31,1.16c19,33.21,53.37,84.32,53.72,84.83A.83.83,0,0,0,2002.27,1627.53Z"/><path class="cls-9" d="M2083.52,1595.76a.84.84,0,0,0,.52-.18.86.86,0,0,0,.15-1.2c-.44-.55-43.46-55.22-55.66-75.13a.85.85,0,0,0-1.17-.28.86.86,0,0,0-.28,1.17c12.25,20,55.33,74.75,55.77,75.3A.85.85,0,0,0,2083.52,1595.76Z"/><path class="cls-9" d="M1904,1546.71l.22,0a.85.85,0,0,0,.6-1c-2.88-10.67.55-15,.58-15.06a.85.85,0,0,0-1.3-1.1c-.17.2-4.06,5-.93,16.6A.86.86,0,0,0,1904,1546.71Z"/><path class="cls-9" d="M1911.79,1550.89a.8.8,0,0,0,.34-.07.85.85,0,0,0,.44-1.12c-4.4-10.13-1.65-14.94-1.62-15a.85.85,0,0,0-.29-1.16.83.83,0,0,0-1.16.27c-.14.22-3.29,5.51,1.51,16.56A.85.85,0,0,0,1911.79,1550.89Z"/><path class="cls-9" d="M1984.56,1510.49c.79,0,1.6,0,2.43,0a.85.85,0,0,0-.06-1.7c-35.35,1.17-44.52-23.85-44.6-24.1a.86.86,0,0,0-1-.59.84.84,0,0,0-.6,1C1940.75,1485.34,1949.9,1510.49,1984.56,1510.49Z"/><path class="cls-19" d="M1986.57,1495.64c14.89-.08,23.57-9.72,28.6-20-11.86-5.72-29-9.17-52.5-3.68,0,0-7.76.79-17.5,2.52C1949.77,1481.41,1962.21,1495.77,1986.57,1495.64Z"/><path class="cls-9" d="M2083.52,1578.84a.86.86,0,0,0,.84-.72l1.88-11.18-.19-.28-47.93-72.31c-.38-.67-5.43-9.3-17.08-16.51-10.93-6.76-30-13.42-58.56-6.75a.85.85,0,0,0,.39,1.66c28-6.53,46.54-.07,57.19,6.49,11.54,7.11,16.54,15.89,16.59,16l0,.06,47.76,72-1.77,10.52a.84.84,0,0,0,.7,1Z"/><path class="cls-9" d="M1978.85,1630.31h.12l23.15-3.18a.85.85,0,0,0-.24-1.68l-23.14,3.17a.85.85,0,0,0,.11,1.7Z"/><path class="cls-19" d="M2004.29,1405.4v37.08s.5,11.92-9.93,13.41l2,15.9a12.42,12.42,0,0,1-8.49,13.37,32.55,32.55,0,0,1-9.85,1.52c-11.92,0-18.37-8.94-19.37-13.41s2-25.82,2-25.82l-.36-10.5,1.35-40.66Z"/><path class="cls-24" d="M1970.18,1445.76s.7,20,25.62,21.86l-1.44-11.73S1978.2,1459.14,1970.18,1445.76Z"/><path class="cls-16" d="M2006,1436.87s3.25,23.88-12.61,24.73c-22.68,1.21-24.88-11.74-26.23-22.33l-.23-21.87.73-6.34h0a11.35,11.35,0,0,1,2.8,6.5c.47,5.24,1.63,19.37,2.94,20C1975.27,1438.44,2002.49,1434.57,2006,1436.87Z"/><path class="cls-16" d="M1975.52,1424.85a.52.52,0,0,1-.35-.14.49.49,0,0,1,0-.7c.07-.07,6.9-7.06,13.14-2a.49.49,0,0,1,.07.7.48.48,0,0,1-.69.07c-5.54-4.45-11.55,1.68-11.81,2A.47.47,0,0,1,1975.52,1424.85Z"/><path class="cls-16" d="M1958.4,1419.64l10.72,2.23,1.94,2s-.93-18-3-21.5S1958.4,1419.64,1958.4,1419.64Z"/><path class="cls-16" d="M1996,1421.87a.52.52,0,0,1-.38-.17.5.5,0,0,1,.05-.7c.2-.17,4.94-4.23,7.94-1.66a.5.5,0,0,1-.65.76c-2.35-2-6.59,1.61-6.64,1.65A.49.49,0,0,1,1996,1421.87Z"/><circle cx="1984.07" cy="1426.86" r="1.49"/><circle cx="1999.91" cy="1425.37" r="1.49"/><circle class="cls-19" cx="1964.31" cy="1426.34" r="8.94"/><path class="cls-24" d="M1962.75,1431.3a3.72,3.72,0,0,1-3.51-2.79,3.5,3.5,0,0,1,1.42-4.08,4.2,4.2,0,0,1,4.69.16,4.06,4.06,0,0,0-1.81-2.2,5.64,5.64,0,0,0-4-.26.25.25,0,0,1-.32-.15.26.26,0,0,1,.16-.32,6,6,0,0,1,4.36.29,4.82,4.82,0,0,1,2.28,3.26l.22.87-.64-.63a3.87,3.87,0,0,0-4.72-.6,3,3,0,0,0-1.2,3.52,3.21,3.21,0,0,0,3,2.44h0a.24.24,0,0,1,.25.24.25.25,0,0,1-.25.25Z"/><path class="cls-24" d="M1990.81,1436.91a.25.25,0,0,1-.23-.17.26.26,0,0,1,.16-.32l5-1.64-1.57-11.72a.25.25,0,0,1,.22-.28.24.24,0,0,1,.27.22l1.63,12.12-5.37,1.77Z"/><path class="cls-25" d="M1987,1441.74c.15,0,9.83-.25,9.83-.25s-1.21,4-4.81,4.09S1987,1441.74,1987,1441.74Z"/><path class="cls-16" d="M1958.4,1419.64s-3-17.41,2.31-23.89,35.92-17.85,39.63-14.6,0,7.18,0,7.18,12.28-3.94,15.06,7-23.64,15.53-39.39,10.43A35.16,35.16,0,0,0,1958.4,1419.64Z"/><path class="cls-9" d="M2007.12,1706.3a56,56,0,0,0,5.9-.3c10.73-1.09,17.13-4.74,17.4-4.9a.85.85,0,1,0-.85-1.47c-.06,0-6.42,3.64-16.82,4.69-9.58,1-24.68-.11-42.13-10.74-21.9-13.34-49.3-69.55-66.12-113.63a.84.84,0,0,0-1.09-.49.86.86,0,0,0-.5,1.1c16.91,44.33,44.56,100.91,66.83,114.47C1984.39,1704,1997.45,1706.3,2007.12,1706.3Z"/><path class="cls-26" d="M1586.52,662.44a11.42,11.42,0,0,1,10.87-9.43,4.43,4.43,0,0,1,1.62.24c.58.23,1.06.65,1.63.93,1.37.67,3.2.49,4.2,1.64s.49,3.16.81,4.78a21.72,21.72,0,0,0,1.48,3.45,8.85,8.85,0,0,1-.72,7.13,26.39,26.39,0,0,1-4.53,5.8,13.77,13.77,0,0,1-4.71,3.72c-3.67,1.46-6.39-1.26-7.55-4.47C1588.06,671.94,1585.84,667.1,1586.52,662.44Z"/><path class="cls-26" d="M1565.05,685.56s-10.51,30.16-11.78,32.7-7.69,14.23-5.38,28,43.91,18.67,43.91,18.67l-.75-94.51S1572.46,668.17,1565.05,685.56Z"/><path class="cls-26" d="M1616.61,685.56s10.51,30.16,11.78,32.7,7.7,14.23,5.39,28-43.92,18.67-43.92,18.67l.76-94.51S1609.2,668.17,1616.61,685.56Z"/><polygon class="cls-19" points="1604.89 750.07 1578.65 749.61 1580.06 728.19 1602.2 728.19 1604.89 750.07"/><path class="cls-24" d="M1579.47,737.07a19,19,0,0,0,9.24,4.23l1.66,0h.24l1.66,0a20.54,20.54,0,0,0,10.88-5.41l-.94-7.7h-22.15Z"/><path class="cls-19" d="M1607.85,691.13a11.78,11.78,0,0,0-3.83-4.53,43.25,43.25,0,0,0-13.13-3.59h-.72A43.25,43.25,0,0,0,1577,686.6a11.86,11.86,0,0,0-3.83,4.53,181.8,181.8,0,0,0-1.25,18.55,31.62,31.62,0,0,0,5.27,18.34c2.72,4,6.63,7.58,12,8.1h2.5c5.42-.52,9.33-4.1,12-8.1a31.62,31.62,0,0,0,5.27-18.34A181.8,181.8,0,0,0,1607.85,691.13Z"/><path class="cls-19" d="M1604.59,713.93a6.1,6.1,0,1,0,6.1-6.09A6.1,6.1,0,0,0,1604.59,713.93Z"/><path class="cls-24" d="M1611.14,717.69a2.56,2.56,0,0,0,2.41-1.92,2.39,2.39,0,0,0-1-2.81,2.86,2.86,0,0,0-3.16.07,2.69,2.69,0,0,1,1.19-1.42,3.83,3.83,0,0,1,2.68-.17.19.19,0,0,0,.25-.12.19.19,0,0,0-.12-.25,4.14,4.14,0,0,0-3,.2,3.33,3.33,0,0,0-1.56,2.24l-.17.68.49-.5a2.64,2.64,0,0,1,3.2-.4,2.05,2.05,0,0,1,.8,2.37,2.14,2.14,0,0,1-2.07,1.64.2.2,0,1,0,0,.39Z"/><path class="cls-19" d="M1578.05,713.93a6.1,6.1,0,1,1-6.1-6.09A6.1,6.1,0,0,1,1578.05,713.93Z"/><path class="cls-24" d="M1571.5,717.69a2.56,2.56,0,0,1-2.41-1.92,2.4,2.4,0,0,1,1-2.81,2.86,2.86,0,0,1,3.16.07,2.69,2.69,0,0,0-1.19-1.42,3.83,3.83,0,0,0-2.68-.17.19.19,0,0,1-.25-.12.2.2,0,0,1,.12-.25,4.14,4.14,0,0,1,3,.2,3.33,3.33,0,0,1,1.56,2.24l.17.68-.49-.5a2.63,2.63,0,0,0-3.19-.4,2,2,0,0,0-.81,2.37,2.15,2.15,0,0,0,2.07,1.64.2.2,0,0,1,.2.19.19.19,0,0,1-.19.2Z"/><path class="cls-24" d="M1589.75,719.85a.22.22,0,0,0,.22-.18.21.21,0,0,0-.17-.26c-1.44-.31-2.35-2.08-2.61-2.66a6.71,6.71,0,0,0,3.71-4.22,7.32,7.32,0,0,0-1.16-5.41.23.23,0,0,0-.37.26,6.88,6.88,0,0,1,1.09,5,6.36,6.36,0,0,1-3.65,4l-.18.09.07.19c0,.11,1.06,2.7,3,3.12Z"/><circle cx="1583.66" cy="710.05" r="1.24"/><circle cx="1598.98" cy="710.3" r="1.24"/><path class="cls-26" d="M1569.3,708.05s22.5-10.87,24.36-24.71l1,3.15s7.8,20.37,17.45,21.47c0,0,8.43-30.55-15.76-36.62S1567.37,689.21,1569.3,708.05Z"/><path class="cls-25" d="M1586.76,722.33c.12,0,7.54-.18,7.54-.18s-.94,3.06-3.69,3.13S1586.76,722.33,1586.76,722.33Z"/><path class="cls-26" d="M1604.12,707.62a.49.49,0,0,1-.32-.12c-3.15-2.67-7.63-1.2-7.68-1.18a.49.49,0,0,1-.31-.94c.2-.07,5-1.67,8.63,1.37a.49.49,0,0,1-.32.87Z"/><path class="cls-26" d="M1578.75,707.52a.48.48,0,0,1-.38-.18.49.49,0,0,1,.07-.7c3.65-2.94,8.46-1.23,8.66-1.15a.49.49,0,1,1-.34.92s-4.49-1.59-7.7,1A.45.45,0,0,1,1578.75,707.52Z"/><path class="cls-19" d="M1573.36,719.86s2.24,16.5,15.92,16.26Z"/><path class="cls-19" d="M1608,719.4s-2.24,17-15.92,16.72l10-23.23Z"/><path class="cls-11" d="M1606.33,674.14a1,1,0,0,1-.3,0c-10.75-3.45-17.56-3.12-20-2.81l-.25,0a1,1,0,0,1-1-.92,1,1,0,0,1,.92-1h.13c3.18-.4,10.11-.56,20.83,2.88a1,1,0,0,1,.64,1.25A1,1,0,0,1,1606.33,674.14Z"/><path class="cls-27" d="M1577.12,800.28l34.34,17.12,41.28,25.45,10.52,12.48,20,30.85c69.44-15.48,52.79-54.79,48.66-61.72-11.25-18.88-36.59-40.72-50.57-56.83a123.64,123.64,0,0,0-9.79-10A51.89,51.89,0,0,0,1636.5,744h-32.08Zm82,8.87s4,3.48,4.15,3.66L1684.44,834l1.49.51-22.73,11.25s-2.3.9-2.54.42C1660.55,845.94,1659.07,809.15,1659.07,809.15Z"/><path class="cls-27" d="M1575.54,744h-32.08a51.89,51.89,0,0,0-35.1,13.58,123.64,123.64,0,0,0-9.79,10c-14,16.11-39.32,38-50.57,56.83-4.13,6.93-20.78,46.24,48.66,61.72l20-30.85,10.52-12.48,41.28-25.45,34.34-17.12ZM1519.3,846.17c-.24.48-2.54-.42-2.54-.42L1494,834.5l1.49-.51,21.22-21.18c.19-.18,4.15-3.66,4.15-3.66S1519.41,845.94,1519.3,846.17Z"/><polygon class="cls-19" points="1536.52 1190.44 1579.32 1177.05 1563.65 1126.88 1519.11 1134.36 1536.52 1190.44"/><path class="cls-26" d="M1508,1227.36l76.84-46.28-9.23-15.33s-10-4-16.27,4.89c0,0-7.15,16.63-25,12.66l-21.16,29.25S1504.81,1222.15,1508,1227.36Z"/><path class="cls-28" d="M1501.51,1204.78h91.61a0,0,0,0,1,0,0V1211a0,0,0,0,1,0,0h-91.61a2,2,0,0,1-2-2v-2.28A2,2,0,0,1,1501.51,1204.78Z" transform="translate(-401.52 971.15) rotate(-31.07)"/><rect class="cls-19" x="1538.76" y="995.69" width="44.94" height="47.6" transform="translate(1786.83 -831.43) rotate(63.8)"/><path class="cls-16" d="M1603.05,976.76c-1,0-37.29,16.08-37.29,16.08l-11.57,7.55s17.68,120.45,21,152.61c0,0-25.6,18.06-51.53,18.71,0,0-53.49-186.47-53.49-210.16s113.79-79.81,113.79-79.81l51.77,29.88s77.8,6.4,95.69,18.54-138.89,83.14-138.89,83.14Z"/><path class="cls-16" d="M1563.06,988.33s87.83-52.37,118-60.53,51.85-1.26,55.13,8.26,6.57,36.43,0,45.29-121.11,51.2-147.36,58.42C1588.86,1039.77,1565.49,1012.62,1563.06,988.33Z"/><path class="cls-9" d="M1734.82,935c-6.94-14-79.22-21.15-83.4-20.52a.83.83,0,0,1-.75-1.47c1.26-.85,21.54,1.6,21.74,1.62,8.64,1.07,25.24,3.41,39.28,7.11s22.33,7.92,24.62,12.53a.84.84,0,0,1-.38,1.11.8.8,0,0,1-.37.08A.81.81,0,0,1,1734.82,935Zm-83.22-20.61h0Z"/><path class="cls-9" d="M1571.83,1014.38a.8.8,0,0,0,.44-.13.84.84,0,0,0,.26-1.15,59.71,59.71,0,0,1-8.7-25.52c4.84-3.25,53.37-35.39,121.85-64.69a.83.83,0,0,0-.66-1.53c-72,30.81-122,64.78-122.52,65.12l-.39.26,0,.46a60.11,60.11,0,0,0,9,26.79A.84.84,0,0,0,1571.83,1014.38Z"/><path class="cls-9" d="M1670,929.42a.84.84,0,0,0,.66-.32c3.17-4.05,9-7.51,9.11-7.54a.83.83,0,0,0-.83-1.44c-.26.15-6.22,3.65-9.59,8a.84.84,0,0,0,.14,1.17A.81.81,0,0,0,1670,929.42Z"/><path class="cls-9" d="M1489.36,1048.42a.62.62,0,0,0,.19,0,.83.83,0,0,0,.61-1c-.17-.71-17.18-71.12-19.3-83.26-2-11.63,23-28.69,23.24-28.86a.82.82,0,0,0,.23-1.15.83.83,0,0,0-1.16-.22c-1.06.72-26.15,17.83-23.94,30.52,2.12,12.18,19.15,82.65,19.32,83.36A.82.82,0,0,0,1489.36,1048.42Z"/><path class="cls-9" d="M1543.7,1007.49a.81.81,0,0,0,.45-.13l20.22-12.91a.85.85,0,0,0,.25-1.15.83.83,0,0,0-1.15-.25L1543.26,1006a.84.84,0,0,0-.26,1.15A.83.83,0,0,0,1543.7,1007.49Z"/><path class="cls-9" d="M1523.54,1172.54h.12c1.49-.21,36.86-5.12,52-18.92l.32-.29,0-.44-15.26-113.23-4.54-40.27a.81.81,0,0,0-.91-.73.83.83,0,0,0-.74.92l4.54,40.29,15.2,112.81c-14.92,13.23-50.4,18.16-50.76,18.21a.83.83,0,0,0,.11,1.65Z"/><path class="cls-9" d="M1723.68,983a.83.83,0,0,0,.49-.17c9.46-7,9.39-13,9.38-13.22a.83.83,0,0,0-1.66,0c0,.09-.05,5.48-8.7,11.85a.83.83,0,0,0,.49,1.5Z"/><path class="cls-9" d="M1715.18,981.41a.76.76,0,0,0,.39-.1c10.38-5.51,11.19-11.46,11.22-11.71a.83.83,0,0,0-.73-.92.84.84,0,0,0-.92.72c0,.09-.86,5.41-10.35,10.44a.83.83,0,0,0,.39,1.57Z"/><path class="cls-27" d="M1519.3,846.17l-1.13,71.35s76.93,14.06,145.43-4.16c1.68-.45-3.21-70.24-3.21-70.24s0-13.54-7.14-17.72-65-76.84-66.42-76.84S1519.3,846.17,1519.3,846.17Z"/><path class="cls-9" d="M1591.37,767.63a.84.84,0,0,1-.83-.78.83.83,0,0,1,.78-.88c25.28-1.59,33.53-18.9,33.61-19.08a.84.84,0,0,1,1.1-.41.85.85,0,0,1,.41,1.11c-.09.18-8.71,18.38-35,20Z"/><path class="cls-19" d="M1563.51,744h55.73s-10.08,17.44-29.34,17.37C1581.07,761.34,1571.63,758.1,1563.51,744Z"/><path class="cls-11" d="M1558,837l-29.84-6.31s9.15,30.16,8.37,30.31c-5,1-24.31,22.67,5.38,21.6.6,0,17.69-3.31,17.69-3.31Z"/><path class="cls-11" d="M1609.84,835l8.71,41.74s17.92-14.59,17.92-16.18-5.68-21-6.27-21.38S1609.84,835,1609.84,835Z"/><polygon class="cls-22" points="1532.47 809.46 1532.47 803.55 1589.41 822 1565.55 845.36 1532.47 809.46"/><polygon class="cls-22" points="1648.5 809.46 1648.5 803.55 1591.56 822 1615.42 845.36 1648.5 809.46"/><path class="cls-20" d="M1530,805.58c0,2.17,4.34,88.21,4.34,88.21L1590,908.25v-84.6Z"/><path class="cls-20" d="M1650,805.58c0,2.17-4.34,88.21-4.34,88.21L1590,908.25v-84.6Z"/><path class="cls-18" d="M1587,822h6.77a1.17,1.17,0,0,1,1.17,1.17v83.75a1.33,1.33,0,0,1-1.33,1.33h-6.43a1.33,1.33,0,0,1-1.33-1.33V823.17A1.17,1.17,0,0,1,1587,822Z"/><g class="cls-29"><rect class="cls-18" x="1585.84" y="831.47" width="9.1" height="4.18"/></g><g class="cls-29"><rect class="cls-18" x="1585.84" y="897.14" width="9.1" height="4.18"/></g><path class="cls-30" d="M1562.11,866c3.53-3.58.26-8.13.26-8.13a14.81,14.81,0,0,0,.37-6.23,1.48,1.48,0,0,0-1.88-1.15c-3.86,1.16-15,4.57-21.93,7.12-4.77-.71-6.45-3-6.45-3l-.12.2c-.1-4.13-.21-9.29-.21-9.88,0-1-1.58-2.56-4,.56s-7.22,11.49-7.22,11.49h-14.4l-7.92,27.42s29.86,4.22,34.46,4.55,20.59-3.44,25.35-7.38,3.73-7.47,3.73-7.47A6,6,0,0,0,1562.11,866Z"/><path class="cls-24" d="M1552.26,863.17a.55.55,0,0,1-.17-1.08,67.79,67.79,0,0,0,10-4.72.56.56,0,0,1,.56,1,68.77,68.77,0,0,1-10.22,4.81Z"/><path class="cls-24" d="M1552.26,870.18a.55.55,0,0,1-.55-.45.56.56,0,0,1,.45-.65,34,34,0,0,0,9.67-3.58.56.56,0,0,1,.56,1,35,35,0,0,1-10,3.71Z"/><path class="cls-24" d="M1553.49,878.18a.54.54,0,0,1-.54-.43.55.55,0,0,1,.42-.66,29.65,29.65,0,0,0,8.44-3.52.55.55,0,0,1,.77.16.56.56,0,0,1-.17.77,30.16,30.16,0,0,1-8.81,3.67Z"/><path class="cls-27" d="M1524.37,849.54l-3.48,39.36s-12.45,1.36-36.48-6-4.1-46.68-2.63-47.29,17.44,1.39,17.44,1.39Z"/><path d="M1521.56,889.64l-.7,0c-2.6-.09-63.88-2.58-75.94-34.89-.19-.37-5.28-10.84.14-25.7s43-51.31,44.65-52.86c.6-.69,15.72-17.82,23.11-23.11a.71.71,0,0,1,1,.16.72.72,0,0,1-.17,1c-7.25,5.19-22.75,22.76-22.9,22.93-.43.42-39.08,38-44.34,52.37-5.19,14.24-.22,24.52-.17,24.63,11.08,29.67,67.09,33.61,74,34,.74-10,3-34.42,3.39-38.19-23.69-12-46.89-23-47.12-23.13a.72.72,0,0,1-.34-1,.73.73,0,0,1,1-.34c.23.12,23.73,11.32,47.59,23.37l.44.22-.05.49c0,.29-2.75,29.13-3.48,39.34Z"/><path d="M1495.12,835.75a.72.72,0,0,1-.52-1.22l25.65-26.37a.72.72,0,0,1,1,1l-25.66,26.36A.7.7,0,0,1,1495.12,835.75Z"/><path d="M1519.3,847.74h0a.71.71,0,0,1-.69-.74l1.59-41.45a.68.68,0,0,1,.75-.69.72.72,0,0,1,.69.74L1520,847.05A.72.72,0,0,1,1519.3,847.74Z"/><path d="M1495.53,834.71a.71.71,0,0,1-.61-.34l-4.4-7a.72.72,0,1,1,1.21-.77l4.4,7a.74.74,0,0,1-.22,1A.76.76,0,0,1,1495.53,834.71Z"/><path class="cls-30" d="M1617.85,866c-3.53-3.58-.26-8.13-.26-8.13a16.57,16.57,0,0,1-.52-5.06,2.31,2.31,0,0,1,3-2c4.52,1.37,14.58,4.47,21,6.83,4.77-.71,6.45-3,6.45-3l.12.2c.1-4.13.21-9.29.21-9.88,0-1,1.58-2.56,4,.56s7.22,11.49,7.22,11.49h14.4l7.92,27.42s-29.86,4.22-34.46,4.55-20.59-3.44-25.35-7.38-3.73-7.47-3.73-7.47A6,6,0,0,1,1617.85,866Z"/><path class="cls-24" d="M1627.7,863.17a.55.55,0,0,0,.17-1.08,67.79,67.79,0,0,1-10-4.72.56.56,0,1,0-.56,1,68.77,68.77,0,0,0,10.22,4.81Z"/><path class="cls-24" d="M1627.7,870.18a.55.55,0,0,0,.55-.45.56.56,0,0,0-.45-.65,34,34,0,0,1-9.67-3.58.56.56,0,0,0-.56,1,35,35,0,0,0,10,3.71Z"/><path class="cls-24" d="M1626.47,878.18a.54.54,0,0,0,.54-.43.55.55,0,0,0-.42-.66,29.65,29.65,0,0,1-8.44-3.52.55.55,0,0,0-.77.16.56.56,0,0,0,.17.77,30.16,30.16,0,0,0,8.81,3.67Z"/><path class="cls-27" d="M1655.59,849.54l3.48,39.36s12.45,1.36,36.48-6,4.1-46.68,2.63-47.29-17.44,1.39-17.44,1.39Z"/><path d="M1658.4,889.64l-.05-.69c-.73-10.21-3.45-39.05-3.48-39.34l0-.49.44-.22c23.86-12,47.36-23.25,47.59-23.37a.72.72,0,0,1,.62,1.3c-.23.11-23.43,11.18-47.12,23.13.35,3.77,2.65,28.2,3.39,38.19,6.89-.38,62.9-4.31,74-33.92.08-.18,5-10.46-.14-24.7-5.26-14.42-43.91-51.95-44.3-52.33-.19-.21-15.69-17.78-22.94-23a.72.72,0,0,1-.17-1,.71.71,0,0,1,1-.16c7.39,5.29,22.51,22.42,23.15,23.15,1.56,1.51,39.24,38.1,44.61,52.82s.33,25.33.11,25.77c-12,32.24-73.31,34.73-75.91,34.82Z"/><path d="M1684.84,835.75a.7.7,0,0,1-.51-.22l-25.65-26.36a.72.72,0,0,1,0-1,.72.72,0,0,1,1,0l25.65,26.37a.72.72,0,0,1-.52,1.22Z"/><path d="M1660.66,847.74a.72.72,0,0,1-.72-.69l-1.59-41.45a.72.72,0,0,1,.69-.74.67.67,0,0,1,.75.69l1.59,41.45a.71.71,0,0,1-.69.74Z"/><path d="M1684.43,834.71a.76.76,0,0,1-.38-.11.74.74,0,0,1-.22-1l4.4-7a.72.72,0,1,1,1.21.77l-4.4,7A.71.71,0,0,1,1684.43,834.71Z"/><polygon class="cls-19" points="747.84 1694.3 810.64 1695.16 811.54 1636.44 748.99 1628.7 747.84 1694.3"/><path class="cls-12" d="M687.34,1716.1l127.29-15.5-3.09-25.39s-10.74-11.06-24.08-3.12c0,0-19.05,17.52-40,1.91l-44.69,25.8S686.28,1707.47,687.34,1716.1Z"/><path class="cls-31" d="M683,1708.66H815.66a0,0,0,0,1,0,0v9a0,0,0,0,1,0,0H683a1.19,1.19,0,0,1-1.19-1.19v-6.58A1.19,1.19,0,0,1,683,1708.66Z" transform="translate(-201.56 103.05) rotate(-6.94)"/><path class="cls-32" d="M734.2,1681.64,756,1707.75l8.67-1.06-24-28.78Z"/><path class="cls-32" d="M742,1709.44l8.68-1c-4.72-5.66-13.9-16.7-20.41-24.5l-6.45,3.72Z"/><path class="cls-33" d="M943.16,1484.94s54.06.89,92-.41c12.16-.42,23,.44,29.39-1,26.38-5.86,32.88-88.19,2.93-138.63s-134.73,104.43-134.73,104.43Z"/><polygon class="cls-19" points="845.32 1694.3 908.12 1695.16 909.02 1636.44 846.47 1628.7 845.32 1694.3"/><path class="cls-11" d="M789.34,1722.5,915,1697.11,910,1672s-11.57-10.19-24.25-1.23c0,0-17.62,19-39.75,5L803.43,1705S787.62,1714,789.34,1722.5Z"/><path class="cls-28" d="M784.63,1710.27H917.25a0,0,0,0,1,0,0v9a0,0,0,0,1,0,0H784.63a1.19,1.19,0,0,1-1.19-1.19v-6.58A1.19,1.19,0,0,1,784.63,1710.27Z" transform="translate(-322.71 202.34) rotate(-11.42)"/><path class="cls-32" d="M833.38,1684.48l23.72,24.33,8.57-1.73-26.15-26.82Z"/><path class="cls-32" d="M843.36,1711.59l8.57-1.73c-5.14-5.28-15.16-15.56-22.26-22.83l-6.14,4.22Z"/><path class="cls-17" d="M884.94,1374.76s-132.8,8.49-136.64,23.82-14.82,178.38-6.6,247.94c0,0,50.39,3.47,74.48-2.37l5.87-169.61,39.78-4.56L953,1360.44Z"/><path class="cls-33" d="M948.75,1372.25s-102.42,28.9-106.26,44.24-14.74,160.84-6.53,230.4c0,0,54.18,3.1,78.28-2.74l6.5-160,23.37.81,56.67-99.7Z"/><path class="cls-9" d="M881.73,1648.78c23.94,0,32.48-3.61,32.88-3.79l.53-.23,6.29-160.93-9.89,4.67.79,1.67,7.13-3.37-6.12,156.7c-2.59.89-15,4.47-44.33,3.12l-.09,1.85C873.61,1648.68,877.87,1648.78,881.73,1648.78Z"/><path class="cls-9" d="M904.18,1614.07c2.56-9.85,3.29-106,3.32-110.07l-1.85,0c0,1-.76,100-3.26,109.63Z"/><path class="cls-9" d="M809,1478.16c12.15-3.93,28.86-4.52,29-4.52l-.06-1.85c-.17,0-17.14.6-29.53,4.61Z"/><path class="cls-9" d="M781.68,1648.43c20.45,0,34.58-3.35,34.72-3.38l.68-.17L823,1473.39l-7.57,6.09,1.16,1.44,4.43-3.56-5.74,166a168.08,168.08,0,0,1-35.41,3.18v1.85Z"/><path class="cls-9" d="M807.44,1617.65c2.54-14.89.12-115.66,0-119.94l-1.84,0c0,1,2.52,104.88,0,119.59Z"/><path class="cls-9" d="M983.84,1486.66c23.59,0,51.87-.8,83.67-3.19l-.14-1.84c-94.74,7.14-158.27.08-158.9,0l-.21,1.83C908.68,1483.51,937,1486.66,983.84,1486.66Z"/><path class="cls-7" d="M951.41,1320.61c-1.83,0-75.4,31.61-75.4,31.61l14.83,28.37,41.28-9.06Z"/><path class="cls-7" d="M1058,1188.76s31.29-1.09,46.22,7.37c22.29,12.62,14.35,84.93,14.35,84.93s-18.94-10.33-20.09-13.77S1058,1188.76,1058,1188.76Z"/><path class="cls-9" d="M1065.59,1345.72l-.11,0-23,5.27a.86.86,0,0,1-.38-1.68l23-5.27a.86.86,0,0,1,.49,1.65Z"/><path class="cls-9" d="M917.77,1334.77a.86.86,0,0,1-.62-1.61l24.87-9.92a.86.86,0,1,1,.64,1.6l-24.87,9.92Z"/><path class="cls-27" d="M908.39,1351.05s-9,21.23-2.42,63.81l32.89-17.65-9.77-31.81Z"/><path class="cls-9" d="M1066,1427.66c-2,.76-3.93,1.36-5.68,1.83-10.54,2.79-17.9,1.63-18.21,1.58a.86.86,0,1,1,.28-1.7c.07,0,7.37,1.15,17.57-1.57,9.41-2.51,23.3-8.93,36-25.21,15.94-20.44,21.76-83.37,21.91-131a.86.86,0,0,1,1.72,0c-.14,48-6.06,111.33-22.27,132.11C1086.68,1417.32,1075.17,1424.21,1066,1427.66Z"/><path class="cls-34" d="M852.78,1283.93l-1.67-.38-34.94,6.24s1.92.44,2,.44S852.78,1283.93,852.78,1283.93Z"/><polygon class="cls-22" points="836.97 1402.1 874.58 1387.41 852.78 1283.93 815.76 1290.23 836.97 1402.1"/><polygon points="854.04 1291.48 854.67 1291.35 853.05 1283.66 851.12 1283.22 851.05 1283.23 816.34 1289.37 816.45 1290.01 851.1 1283.88 852.51 1284.2 854.04 1291.48"/><polygon class="cls-5" points="836.97 1402.1 911.61 1402.1 890.39 1290.23 815.76 1290.23 836.97 1402.1"/><path class="cls-19" d="M852.83,1392a4.75,4.75,0,0,1,4.43-4.71l15-1a1.13,1.13,0,0,0,1-.82h0a1.11,1.11,0,0,0-1-1.39l-22.2-1.47a3.66,3.66,0,0,1-3.42-4.78h0a5.89,5.89,0,0,1,5.82-4.17l22.65,1.5a1.1,1.1,0,0,0,1.13-.82l.1-.36a1.1,1.1,0,0,0-.78-1.35l-24.27-6.52a4.76,4.76,0,0,1-3.43-5.49,4.54,4.54,0,0,1,5.6-3.34l24.46,6.57a1.1,1.1,0,0,0,1.35-.78l.31-1.15a1.1,1.1,0,0,0-.64-1.3l-21.71-9a4.76,4.76,0,0,1-2.69-5.88,4.54,4.54,0,0,1,6-2.59s33.39,11.82,38.84,13.25l-10-4.69c-7.39,6.93.95-2.53,7-3.75,6.74-1.36,24.53,15.12,24.53,15.12.82,1.41,0,4.58-1.31,7-5,26.36-5.94,30.39-7.94,37.37L884.21,1399a68.13,68.13,0,0,0-24.46-2.81l-2.07.13A4.55,4.55,0,0,1,852.83,1392Z"/><polygon class="cls-5" points="901.07 1346.53 902.94 1357.66 887 1352.34 887.14 1345.34 901.07 1346.53"/><polygon class="cls-34" points="890.26 1290.27 888.93 1289.79 816.17 1289.79 815.76 1290.23 890.26 1290.27"/><rect x="896.22" y="1289.66" width="0.65" height="66.99" transform="translate(-227.56 186.97) rotate(-10.57)"/><polygon points="836.7 1402.43 877.71 1402.03 877.7 1401.38 837.24 1401.78 826.34 1344.29 825.7 1344.41 836.7 1402.43"/><rect x="825.33" y="1299.65" width="7.42" height="0.65" transform="translate(-711 1225.57) rotate(-54.71)"/><rect x="886.76" y="1337.33" width="7.42" height="0.65" transform="translate(-715.81 1291.56) rotate(-54.7)"/><rect x="881.83" y="1339.8" width="7.42" height="0.65" transform="translate(-719.9 1288.58) rotate(-54.7)"/><rect x="825.96" y="1304.33" width="7.42" height="0.65" transform="translate(-714.55 1228.04) rotate(-54.71)"/><path class="cls-7" d="M1088.29,1194.4c-17.78-2.46-64.7-4.16-64.7-4.16s-6.21,1.63-4.23.72c-51.81,9.14-57.54,47.56-57.54,47.56l-25.29,111-28.14,1.52c-9.11,17.26-2.42,63.81-2.42,63.81l136.31,15.36s29.46,4.86,54.38-27.1c16.49-21.14,22.1-86,22.09-133.48C1118.75,1269.64,1115.92,1198.23,1088.29,1194.4Z"/><path class="cls-9" d="M1042.47,1351.45a.88.88,0,0,1-.51,0,.87.87,0,0,1-.64-1c.15-.61,14.39-61.16,20.45-99.27a.87.87,0,0,1,1-.72.86.86,0,0,1,.71,1c-6.07,38.17-20.33,98.79-20.47,99.39A.86.86,0,0,1,1042.47,1351.45Z"/><path class="cls-9" d="M954.3,1350.46a.89.89,0,0,1-.56,0,.86.86,0,0,1-.57-1.08c.22-.67,21.35-67.73,25.77-90.92a.86.86,0,0,1,1.69.33c-4.43,23.28-25.6,90.44-25.81,91.11A.89.89,0,0,1,954.3,1350.46Z"/><path class="cls-9" d="M1040.23,1222.78q-1,.1-2,.18a.72.72,0,0,1-.76-.67.7.7,0,0,1,.66-.76c29.65-2.08,35.15-23.79,35.19-24a.72.72,0,0,1,.83-.58.71.71,0,0,1,.59.79C1074.67,1198,1069.19,1219.78,1040.23,1222.78Z"/><path class="cls-9" d="M948.25,1334.45a.86.86,0,0,1-1-.37l-5.78-9.9.08-.33L961,1238.36c.12-.77,1.8-10.73,10.25-21.71,7.92-10.3,23.53-23.4,52.94-27.31a.86.86,0,0,1,1,.74.87.87,0,0,1-.74,1c-28.78,3.82-44,16.56-51.75,26.57-8.37,10.85-10,20.93-10,21v.07l-19.41,85.18,5.44,9.31a.86.86,0,0,1-.31,1.18A.38.38,0,0,1,948.25,1334.45Z"/><path class="cls-9" d="M1072.19,1352.22a.72.72,0,0,1-.33,0c-1.23,0-123-3.69-162.87-.4-1,2.61-5.47,16.13-4.21,40.86a.86.86,0,0,1-1.72.08c-1.43-28,4.3-41.54,4.54-42.1l.21-.47.51,0c39.38-3.38,162.36.32,163.6.35a.86.86,0,0,1,.27,1.67Z"/><path class="cls-19" d="M1015.74,1127v35.81s-.51,12.1,10.08,13.61l-2,16.15a12.61,12.61,0,0,0,8.62,13.57,33.13,33.13,0,0,0,10,1.54c12.1,0,18.66-9.07,19.67-13.61s-2-26.22-2-26.22l.37-10.66-1.38-41.28Z"/><path class="cls-9" d="M1045,1144.91a.46.46,0,0,0,.35-.14.5.5,0,0,0,0-.71c-.07-.07-7-7.17-13.34-2.06a.5.5,0,0,0-.08.71.51.51,0,0,0,.71.08c5.61-4.53,11.72,1.7,12,2A.51.51,0,0,0,1045,1144.91Z"/><path class="cls-9" d="M1024.17,1141.89a.49.49,0,0,0,.38-.18.51.51,0,0,0,0-.71c-.21-.17-5-4.29-8.06-1.68a.51.51,0,0,0,.66.77c2.38-2,6.69,1.64,6.74,1.68A.5.5,0,0,0,1024.17,1141.89Z"/><circle cx="1036.27" cy="1146.95" r="1.51"/><circle cx="1020.19" cy="1145.44" r="1.51"/><path class="cls-9" d="M1057.69,1117.91l-8.44,11.95s-25.58,9.93-38.69-1.83-9.07-17.42-5.23-23.31c1.89-2.9,10.94-8.81,22-3.89,6.06,2.69,10.53-5.33,17.59-1.3s15.39,11,14.46,13.79S1057.69,1117.91,1057.69,1117.91Z"/><path class="cls-9" d="M1057.18,1112.87s11.64-.56,14.89,10.64-1.12,17.08-1.23,20.42,2.15,25.86-13.66,24.18l-4.27-37.2,5.5-14.81Z"/><circle class="cls-19" cx="1056.33" cy="1146.43" r="9.08" transform="translate(-501.26 1082.72) rotate(-45)"/><path class="cls-24" d="M1057,1152a3.8,3.8,0,0,0,3.56-2.83,3.55,3.55,0,0,0-1.43-4.15,4.26,4.26,0,0,0-4.77.17,4.14,4.14,0,0,1,1.83-2.24,5.71,5.71,0,0,1,4-.26.25.25,0,0,0,.32-.16.26.26,0,0,0-.16-.32,6.14,6.14,0,0,0-4.43.3,4.91,4.91,0,0,0-2.31,3.3l-.22.88.64-.64a3.94,3.94,0,0,1,4.8-.6,3.06,3.06,0,0,1,1.21,3.57,3.25,3.25,0,0,1-3.07,2.48h0a.26.26,0,0,0,0,.51Z"/><path class="cls-24" d="M1050.37,1166.15s-.71,20.25-26,22.19l1.46-11.91S1042.23,1179.73,1050.37,1166.15Z"/><path class="cls-24" d="M1029.42,1157.16a.26.26,0,0,0,.24-.18.26.26,0,0,0-.16-.32l-5-1.67,1.59-11.89a.25.25,0,0,0-.5-.07l-1.65,12.31,5.45,1.8Z"/><path class="cls-25" d="M1033.34,1162.07c-.16,0-10-.26-10-.26s1.24,4.06,4.89,4.16S1033.34,1162.07,1033.34,1162.07Z"/><rect class="cls-7" x="925.71" y="443.48" width="320.29" height="24.51" transform="translate(-37.1 810.36) rotate(-40.29)"/><path class="cls-33" d="M1230.84,336.64c11.2,13.43,27.9,66.36,14.47,77.56s-51.9-23.54-63.11-37a31.68,31.68,0,0,1,48.64-40.59Z"/><path d="M1238.65,417.17a10.84,10.84,0,0,0,7.17-2.36l-1-1.21c-6.92,5.77-20.9-1.87-31.42-9.29-12.06-8.52-24.51-20.33-30.57-27.59a30.92,30.92,0,0,1,3.92-43.5l-1-1.21a32.5,32.5,0,0,0-4.12,45.72c6.12,7.34,18.69,19.27,30.87,27.87C1220.61,411.35,1230.79,417.17,1238.65,417.17Z"/><path class="cls-7" d="M1171,906.56h54.43a0,0,0,0,1,0,0v3.12a6.1,6.1,0,0,1-6.1,6.1h-42.24a6.1,6.1,0,0,1-6.1-6.1v-3.12A0,0,0,0,1,1171,906.56Z" transform="translate(2396.52 1822.33) rotate(180)"/><circle class="cls-35" cx="1288.07" cy="472.01" r="45.55" transform="translate(381.57 1501.66) rotate(-68.76)"/><path class="cls-11" d="M1203.41,370.56a132.14,132.14,0,0,0-16.8,186.12l202.91-169.33A132.13,132.13,0,0,0,1203.41,370.56Z"/><rect class="cls-7" x="1013.98" y="561.16" width="24.51" height="371.92" transform="matrix(0.95, -0.32, 0.32, 0.95, -185.37, 368.48)"/><path class="cls-11" d="M1223.29,913.57h-186.8a44.67,44.67,0,0,0-44.67,44.66V963h280.91A49.44,49.44,0,0,0,1223.29,913.57Z"/><polygon class="cls-7" points="1389.53 387.35 1186.62 556.68 1197.05 567.05 1398.23 396.37 1389.53 387.35"/><path d="M1355.54,433.62l43.77-37.13-.44-.59c-.32-.43-32.07-42.77-79.37-53-49.19-10.7-78.79,4.18-93,11.33-16.51,8.3-41.63,29.88-50.52,46.34l1.39.75c8.76-16.21,33.54-37.48,49.84-45.68,14.06-7.07,43.32-21.78,92-11.2,43.67,9.5,74,46.72,78,51.86l-42.63,36.17Z"/><rect x="1155.93" y="471.22" width="264.28" height="1.58" transform="translate(-3.31 934.89) rotate(-39.84)"/><rect x="1188.76" y="461.9" width="1.58" height="17.81"/><rect x="1196.73" y="467.05" width="1.58" height="19.68"/><rect x="937.99" y="450.32" width="268.74" height="1.58" transform="translate(-37.31 800.53) rotate(-40.29)"/><rect x="1040.21" y="464.44" width="106.81" height="1.58" transform="translate(-41.39 817.63) rotate(-40.29)"/><rect x="1011.53" y="565.47" width="1.58" height="357.53" transform="translate(-185.05 363.46) rotate(-18.68)"/><rect x="1026.64" y="608.18" width="1.58" height="208.48" transform="translate(-174.23 367.22) rotate(-18.71)"/><path d="M1249.37,921.91l1.16-1.08c-.37-.39-9.26-9.52-43.15-8.05-33.5,1.46-168.5,0-169.86,0l0,1.58c1.36,0,136.41,1.46,170,0C1240.43,912.92,1249.28,921.82,1249.37,921.91Z"/><rect x="1017.8" y="931.42" width="13.65" height="1.58" transform="translate(-347.84 744.57) rotate(-34.51)"/><rect x="1018.16" y="939.39" width="11.05" height="1.58" transform="translate(-342.69 685.46) rotate(-32.01)"/><circle class="cls-33" cx="965.81" cy="560.92" r="23.27" transform="translate(-33.87 62.85) rotate(-3.66)"/><path class="cls-6" d="M1346.16,727.89c-32.9-1.74-145.66-6.49-222.77,4.94-10,1.48-16.37-10.5-9.45-17.88,4-4.31,11-7.82,22.56-8.64,0,0-4-72,50.38-76.75,62.36-5.47,63.11,65.25,63.11,65.25s28.35-26.9,48.79,7.21c0,0,35.33-20.42,53.15,17.3A6,6,0,0,1,1346.16,727.89Z"/><rect class="cls-36" x="1386.27" y="515.78" width="185.64" height="114.47" rx="8.17"/><path class="cls-36" d="M1515,621.36c.19.76,30,39.6,30.23,38.45s-3.45-41.71-3.45-41.71Z"/><path class="cls-6" d="M1458.7,547.46c14-9.78,23,5.75,25,9.68,2.13-3.86,11.69-19,25.31-8.72,18.31,13.84-9.34,49.61-26.29,60.43h0C1466.13,597.39,1439.88,560.59,1458.7,547.46Z"/><rect class="cls-6" x="857.52" y="950.94" width="192.12" height="118.47" rx="8.17"/><path class="cls-37" d="M1031.6,972.51H871.4a2,2,0,0,1,0-4h160.2a2,2,0,0,1,0,4Z"/><path class="cls-37" d="M1031.6,995.31H871.4a2,2,0,1,1,0-4h160.2a2,2,0,0,1,0,4Z"/><path class="cls-37" d="M975.49,1018.11H871.4a2,2,0,0,1,0-4H975.49a2,2,0,0,1,0,4Z"/><path class="cls-37" d="M1032.79,1018.11H991.25a2,2,0,0,1,0-4h41.54a2,2,0,0,1,0,4Z"/><path class="cls-37" d="M936.83,1040.91H871.4a2,2,0,0,1,0-4h65.43a2,2,0,0,1,0,4Z"/><path class="cls-37" d="M1032.79,1040.91H951.5a2,2,0,0,1,0-4h81.29a2,2,0,0,1,0,4Z"/><path class="cls-6" d="M992.06,1062.72c.12.49,19.3,25.44,19.42,24.7s-2.21-26.79-2.21-26.79Z"/><rect class="cls-16" x="367.41" y="1767.26" width="2300.09" height="8.76"/><path class="cls-3" d="M1925.14,416.85c179.09,54,210.8,2.94,198-61.23-16.88-84.93-97.91-141.15-183.71-129.48-115.64,15.73-257.92,54.19-114.61,145.12A405.53,405.53,0,0,0,1925.14,416.85Z"/></g></g></g></svg>